<svg width="17" height="17" viewBox="0 0 17 17" fill="none" xmlns="http://www.w3.org/2000/svg">
<path d="M8.56231 1.67775C10.7873 1.67775 11.0907 1.67775 12.001 1.67775C12.8101 1.67775 13.2146 1.88007 13.518 1.98122C13.9226 2.18354 14.226 2.28469 14.5294 2.58817C14.8329 2.89164 15.0351 3.19511 15.1363 3.59973C15.2374 3.9032 15.3386 4.30783 15.4398 5.11709C15.4398 6.0275 15.4398 6.22981 15.4399 8.55642C15.44 10.883 15.44 11.0853 15.44 11.9958C15.4401 12.805 15.2378 13.2096 15.1367 13.5131C14.9344 13.9177 14.8333 14.2212 14.5299 14.5247C14.2265 14.8281 13.9231 15.0305 13.5186 15.1316C13.2152 15.2328 12.8106 15.3339 12.0015 15.4351C11.0913 15.4351 10.889 15.4351 8.56286 15.4351C6.2367 15.4351 6.03443 15.4351 5.1242 15.4351C4.3151 15.4351 3.91054 15.2328 3.60713 15.1316C3.20257 14.9293 2.89916 14.8281 2.59574 14.5247C2.29231 14.2212 2.09003 13.9177 1.98887 13.5131C1.88772 13.2096 1.78657 12.805 1.6854 11.9958C1.68537 11.0853 1.68536 10.883 1.68527 8.55642C1.68517 6.22981 1.68517 6.0275 1.68513 5.11709C1.6851 4.30783 1.88736 3.9032 1.98848 3.59973C2.19074 3.19511 2.29186 2.89164 2.59526 2.58817C2.89866 2.28469 3.20207 2.08238 3.60661 1.98122C3.91002 1.88007 4.31456 1.77891 5.12365 1.67775C6.03389 1.67775 6.3373 1.67775 8.56231 1.67775ZM8.56225 0.1604C6.2361 0.1604 6.03383 0.1604 5.12359 0.1604C4.21336 0.1604 3.60655 0.362715 3.10087 0.565028C2.59519 0.767342 2.08952 1.07081 1.58385 1.5766C1.07819 2.08238 0.875929 2.48701 0.572542 3.09395C0.370288 3.59973 0.269174 4.20667 0.168073 5.11709C0.168109 6.0275 0.168121 6.33097 0.16821 8.55642C0.168302 10.883 0.16831 11.0853 0.168346 11.9958C0.168382 12.9062 0.37068 13.5131 0.572975 14.0189C0.775269 14.5247 1.0787 15.0305 1.58441 15.5362C2.09011 16.042 2.49467 16.2443 3.1015 16.5478C3.60719 16.7501 4.21402 16.8513 5.12426 16.9524C6.03449 16.9524 6.3379 16.9524 8.56292 16.9524C10.7879 16.9524 11.0913 16.9524 12.0016 16.9524C12.9118 16.9524 13.5186 16.7501 14.0243 16.5478C14.53 16.3455 15.0357 16.042 15.5413 15.5362C16.047 15.0305 16.2492 14.6258 16.5526 14.0189C16.7549 13.5131 16.856 12.9062 16.9571 11.9958C16.9571 11.0853 16.957 10.7819 16.957 8.55642C16.9569 6.33097 16.9569 6.0275 16.9568 5.11709C16.9568 4.20667 16.7545 3.59973 16.5522 3.09395C16.3499 2.58817 16.0465 2.08238 15.5408 1.5766C15.0351 1.07081 14.6305 0.868499 14.0237 0.565028C13.518 0.362715 12.9111 0.261557 12.0009 0.1604C11.0907 0.1604 10.8884 0.1604 8.56225 0.1604Z" fill="white"/>
<path d="M8.56241 4.20667C6.13512 4.20667 4.2136 6.12865 4.21369 8.55642C4.21379 10.9842 6.13547 12.9062 8.56276 12.9062C10.99 12.9062 12.9116 10.9842 12.9115 8.55642C12.9114 6.12865 10.9897 4.20667 8.56241 4.20667ZM8.5627 11.3888C7.04564 11.3888 5.73081 10.1749 5.73075 8.55642C5.73069 7.03907 6.94428 5.72403 8.56247 5.72403C10.0795 5.72403 11.3944 6.93791 11.3944 8.55642C11.3945 10.0738 10.0798 11.3888 8.5627 11.3888Z" fill="white"/>
<path d="M13.0125 5.11709C13.571 5.11709 14.0238 4.66419 14.0238 4.10552C14.0238 3.54684 13.571 3.09395 13.0124 3.09395C12.4538 3.09395 12.001 3.54684 12.0011 4.10552C12.0011 4.66419 12.4539 5.11709 13.0125 5.11709Z" fill="white"/>
</svg>
