<svg width="34" height="34" viewBox="0 0 34 34" fill="none" xmlns="http://www.w3.org/2000/svg">
<path d="M29.5281 26.2C29.6081 26.3867 29.6481 26.7467 29.6481 27.28C29.6481 27.6267 29.4881 28.1733 29.1681 28.92C29.0348 29.24 28.8214 29.44 28.5281 29.52C28.3414 29.5467 28.1814 29.6533 28.0481 29.84C27.7548 30.16 27.3814 30.4267 26.9281 30.64C26.7681 30.8 26.5548 30.92 26.2881 31C26.0214 31.0533 25.8348 31.0933 25.7281 31.12C25.6481 31.1467 25.5281 31.16 25.3681 31.16C25.1548 31.16 24.9948 31.1333 24.8881 31.08C24.8348 31.0533 24.7148 31 24.5281 30.92C24.3414 30.84 24.1681 30.7867 24.0081 30.76C23.9281 30.76 23.8481 30.72 23.7681 30.64C23.6348 30.5333 23.4081 30.4533 23.0881 30.4C23.0614 30.4 22.9681 30.36 22.8081 30.28C22.7548 30.2267 22.7281 30.1733 22.7281 30.12C22.7281 30.04 22.7414 29.9867 22.7681 29.96C22.7948 29.9333 22.8214 29.8933 22.8481 29.84C22.9014 29.76 22.9014 29.6667 22.8481 29.56C22.6348 29.1867 22.5014 28.7733 22.4481 28.32C22.4481 28.16 22.4214 27.9733 22.3681 27.76C22.3148 27.5467 22.2881 27.3867 22.2881 27.28C22.2881 27.2 22.3148 27.08 22.3681 26.92C22.4214 26.76 22.4481 26.6267 22.4481 26.52C22.4748 26.3867 22.4881 26.28 22.4881 26.2C22.4881 25.96 22.5414 25.7467 22.6481 25.56C22.6748 25.5067 22.7548 25.36 22.8881 25.12C23.0481 24.8533 23.2614 24.6533 23.5281 24.52C23.6081 24.4667 23.6614 24.4133 23.6881 24.36C23.7148 24.3067 23.7414 24.2667 23.7681 24.24C23.8748 24.1333 23.9548 24.0667 24.0081 24.04C24.1948 24.0133 24.4214 23.8667 24.6881 23.6L25.1681 23.12C25.3014 22.9867 25.5148 22.8667 25.8081 22.76C25.8881 22.7333 25.9948 22.72 26.1281 22.72C26.3148 22.72 26.4481 22.7467 26.5281 22.8C27.0348 22.9867 27.4348 23.2267 27.7281 23.52L28.7681 24.6C28.9281 24.76 29.0481 24.9333 29.1281 25.12C29.2348 25.36 29.3681 25.72 29.5281 26.2Z" fill="white"/>
<path d="M18.8578 6.48C19.2578 7.22667 19.4578 7.86667 19.4578 8.4C19.5378 8.96 19.4178 9.50667 19.0978 10.04C18.9378 10.44 18.7778 10.8 18.6178 11.12C18.4044 11.76 18.2044 12.2667 18.0178 12.64C17.9644 12.6933 17.9244 12.7867 17.8978 12.92C17.8711 13.0533 17.8444 13.16 17.8178 13.24C17.7644 13.4267 17.6844 13.6933 17.5778 14.04C17.4978 14.36 17.4178 14.6267 17.3378 14.84C17.2044 15 17.1111 15.2 17.0578 15.44C17.0044 15.6533 16.9778 15.7867 16.9778 15.84C17.0044 16.0267 16.9511 16.1867 16.8178 16.32C16.5244 16.6933 16.3244 17.1067 16.2178 17.56C16.0578 18.2 15.8844 18.6933 15.6978 19.04C15.6444 19.0933 15.6178 19.1733 15.6178 19.28C15.5911 19.4933 15.5111 19.76 15.3778 20.08C15.2711 20.3733 15.1911 20.6133 15.1378 20.8C15.0311 21.0933 14.8978 21.56 14.7378 22.2L14.5378 23L14.1778 24.24C14.1511 24.2667 14.1378 24.3067 14.1378 24.36C14.0844 24.4933 14.0444 24.68 14.0178 24.92C13.9911 25.1333 13.9378 25.3067 13.8578 25.44L13.4978 26.44C13.4978 26.5467 13.4711 26.6267 13.4178 26.68C13.3111 26.8133 13.2311 27.0267 13.1778 27.32C13.1511 27.5867 13.1111 27.7733 13.0578 27.88C13.0044 28.04 12.9778 28.1867 12.9778 28.32L13.0178 28.72V29.28C13.0178 29.3867 12.9511 29.44 12.8178 29.44C12.5511 29.4133 12.3778 29.4933 12.2978 29.68C12.2444 29.7067 12.2178 29.7467 12.2178 29.8C12.2178 29.8267 12.2044 29.84 12.1778 29.84C11.9644 29.8667 11.7511 29.9733 11.5378 30.16C11.3511 30.32 11.2044 30.4267 11.0978 30.48C10.5644 30.8533 9.93778 31.0267 9.21778 31C9.16444 30.9733 9.11111 30.9467 9.05778 30.92C9.03111 30.8667 8.99111 30.8267 8.93778 30.8C8.80444 30.5067 8.72444 30.32 8.69778 30.24C8.64444 29.8133 8.56444 29.4667 8.45778 29.2L8.37778 28.6C8.37778 28.1467 8.31111 27.7733 8.17778 27.48C8.17778 27.4267 8.16444 27.3867 8.13778 27.36C8.13778 27.3333 8.15111 27.3067 8.17778 27.28C8.23111 27.04 8.21778 26.8 8.13778 26.56C8.08444 26.32 8.05778 26.1733 8.05778 26.12C8.05778 26.04 8.03111 25.9067 7.97778 25.72C7.95111 25.5333 7.93778 25.3733 7.93778 25.24C7.93778 25.1333 7.96444 24.9733 8.01778 24.76C8.04444 24.68 8.04444 24.5867 8.01778 24.48C7.99111 24.3733 7.99111 24.2667 8.01778 24.16C7.99111 23.8933 7.97778 23.6533 7.97778 23.44C8.00444 23.2267 8.01778 23.0533 8.01778 22.92C8.01778 22.7333 8.03111 22.5467 8.05778 22.36C8.11111 22.1467 8.13778 21.9467 8.13778 21.76C8.11111 21.5733 8.12444 21.3333 8.17778 21.04C8.23111 20.72 8.27111 20.4667 8.29778 20.28C8.27111 20.0933 8.28444 19.8667 8.33778 19.6C8.39111 19.3067 8.43111 19.0667 8.45778 18.88C8.48444 18.6667 8.59111 18.1733 8.77778 17.4C8.83111 17.2667 8.85778 17.0533 8.85778 16.76V16.28V16.04C8.83111 16.0133 8.80444 15.9867 8.77778 15.96C8.77778 15.9333 8.76444 15.92 8.73778 15.92C8.63111 15.9467 8.47111 15.96 8.25778 15.96C7.93778 15.96 7.40444 15.8533 6.65778 15.64L5.89778 15.24C5.41778 15.0533 5.09778 14.76 4.93778 14.36C4.72444 14.12 4.52444 13.8 4.33778 13.4C4.17778 13 4.07111 12.72 4.01778 12.56C3.96444 12.32 4.03111 12.1467 4.21778 12.04C4.53778 11.8533 4.87111 11.52 5.21778 11.04C5.29778 10.9067 5.41778 10.76 5.57778 10.6C5.73778 10.4133 5.85778 10.28 5.93778 10.2C6.01778 10.12 6.11111 10.0133 6.21778 9.88C6.35111 9.72 6.47111 9.6 6.57778 9.52C6.63111 9.49333 6.67111 9.45333 6.69778 9.4C6.75111 9.32 6.80444 9.26667 6.85778 9.24C7.15111 9.05333 7.40444 8.82667 7.61778 8.56C7.85778 8.26667 8.00444 8.08 8.05778 8C8.16444 7.89333 8.29778 7.74667 8.45778 7.56C8.64445 7.37333 8.83111 7.24 9.01778 7.16C9.17778 6.94667 9.39111 6.73333 9.65778 6.52C9.92444 6.30667 10.1111 6.14667 10.2178 6.04C10.5378 5.82667 10.8711 5.54667 11.2178 5.2C11.2978 5.06667 11.4311 4.97334 11.6178 4.92C12.0978 4.6 12.3378 4.44 12.3378 4.44C12.6044 4.22667 12.7644 4 12.8178 3.76C12.8978 3.54667 12.9644 3.4 13.0178 3.32C13.0178 3.10667 13.1244 3 13.3378 3L13.4978 3.04C13.7378 3.09333 13.9244 3.17333 14.0578 3.28L14.4578 3.32C14.5644 3.32 14.6444 3.30667 14.6978 3.28C14.7778 3.25333 14.8578 3.21333 14.9378 3.16C15.0444 3.10667 15.1511 3.06667 15.2578 3.04C15.4178 2.98667 15.5378 2.98667 15.6178 3.04C15.7244 3.09333 15.8178 3.2 15.8978 3.36C15.8978 3.41334 15.9244 3.52 15.9778 3.68C15.9778 3.76 15.9911 3.88 16.0178 4.04C16.0444 4.17333 16.0844 4.28 16.1378 4.36C16.1911 4.41334 16.3244 4.44 16.5378 4.44H16.8578C16.9644 4.44 17.0311 4.45333 17.0578 4.48C17.2711 4.45333 17.3778 4.57333 17.3778 4.84C17.3778 5.10667 17.4844 5.28 17.6978 5.36C17.8578 5.41333 18.0444 5.56 18.2578 5.8C18.4711 6.04 18.6444 6.2 18.7778 6.28C18.8044 6.28 18.8311 6.34667 18.8578 6.48Z" fill="white"/>
</svg>
