<svg width="34" height="34" viewBox="0 0 34 34" fill="none" xmlns="http://www.w3.org/2000/svg">
<path d="M33.8328 26.28C33.9128 26.4667 33.9528 26.8267 33.9528 27.36C33.9528 27.7067 33.7928 28.2533 33.4728 29C33.3394 29.32 33.1261 29.52 32.8328 29.6C32.6461 29.6267 32.4861 29.7334 32.3528 29.92C32.0594 30.24 31.6861 30.5067 31.2328 30.72C31.0728 30.88 30.8594 31 30.5928 31.08C30.3261 31.1334 30.1394 31.1733 30.0328 31.2C29.9528 31.2267 29.8328 31.24 29.6728 31.24C29.4594 31.24 29.2994 31.2134 29.1928 31.16C29.1394 31.1334 29.0194 31.08 28.8328 31C28.6461 30.92 28.4728 30.8667 28.3128 30.84C28.2328 30.84 28.1528 30.8 28.0728 30.72C27.9394 30.6133 27.7128 30.5334 27.3928 30.48C27.3661 30.48 27.2728 30.44 27.1128 30.36C27.0594 30.3067 27.0328 30.2533 27.0328 30.2C27.0328 30.12 27.0461 30.0667 27.0728 30.04C27.0994 30.0133 27.1261 29.9734 27.1528 29.92C27.2061 29.84 27.2061 29.7467 27.1528 29.64C26.9394 29.2667 26.8061 28.8534 26.7528 28.4C26.7528 28.24 26.7261 28.0533 26.6728 27.84C26.6194 27.6267 26.5928 27.4667 26.5928 27.36C26.5928 27.28 26.6194 27.16 26.6728 27C26.7261 26.84 26.7528 26.7067 26.7528 26.6C26.7794 26.4667 26.7928 26.36 26.7928 26.28C26.7928 26.04 26.8461 25.8267 26.9528 25.64C26.9794 25.5867 27.0594 25.44 27.1928 25.2C27.3528 24.9333 27.5661 24.7334 27.8328 24.6C27.9128 24.5467 27.9661 24.4934 27.9928 24.44C28.0194 24.3867 28.0461 24.3467 28.0728 24.32C28.1794 24.2133 28.2594 24.1467 28.3128 24.12C28.4994 24.0934 28.7261 23.9467 28.9928 23.68L29.4728 23.2C29.6061 23.0667 29.8194 22.9467 30.1128 22.84C30.1928 22.8133 30.2994 22.8 30.4328 22.8C30.6194 22.8 30.7528 22.8267 30.8328 22.88C31.3394 23.0667 31.7394 23.3067 32.0328 23.6L33.0728 24.68C33.2328 24.84 33.3528 25.0133 33.4328 25.2C33.5394 25.44 33.6728 25.8 33.8328 26.28Z" fill="white"/>
<path d="M7.362 30.84C7.09533 30.84 6.90867 30.8267 6.802 30.8H6.042C5.962 30.8267 5.842 30.84 5.682 30.84C5.442 30.84 5.17533 30.8133 4.882 30.76C4.58867 30.68 4.37533 30.6267 4.242 30.6L3.722 30.32C3.642 30.2667 3.562 30.2267 3.482 30.2C3.42867 30.1467 3.37533 30.0933 3.322 30.04L2.522 29.56C2.38867 29.4533 2.26867 29.32 2.162 29.16C2.05533 28.9733 1.97533 28.84 1.922 28.76C1.62867 28.52 1.38867 28.12 1.202 27.56C1.042 27.16 0.828667 26.56 0.562 25.76C0.535333 25.7067 0.508667 25.6533 0.482 25.6C0.482 25.5467 0.468667 25.5067 0.442 25.48C0.175333 25.2667 0.042 24.9867 0.042 24.64C0.042 24.48 0.0553333 24.3467 0.082 24.24C0.082 24.0267 0.0553333 23.84 0.002 23.68C-0.0246667 23.0133 0.215333 22.32 0.722 21.6C1.14867 21.04 1.66867 20.4267 2.282 19.76C2.762 19.44 3.002 19.28 3.002 19.28C3.05533 19.2 3.10867 19.1467 3.162 19.12C3.21533 19.0667 3.25533 19.0133 3.282 18.96C3.41533 18.8 3.73533 18.4933 4.242 18.04L5.082 17.28C5.34867 17.0133 5.54867 16.8533 5.682 16.8C5.89533 16.64 6.01533 16.5067 6.042 16.4C6.22867 16.16 6.562 15.8933 7.042 15.6C7.14867 15.4933 7.25533 15.4 7.362 15.32C7.46867 15.24 7.562 15.1467 7.642 15.04C7.93533 14.6933 8.34867 14.3467 8.882 14C8.962 13.92 9.042 13.8533 9.122 13.8C9.202 13.7467 9.26867 13.6933 9.322 13.64C9.61533 13.2667 9.93533 12.9467 10.282 12.68L11.002 12C11.1353 11.8667 11.202 11.7467 11.202 11.64C11.202 11.5867 11.1087 11.52 10.922 11.44C10.7087 11.3867 10.5353 11.3333 10.402 11.28C10.1353 11.2 9.98867 11.1467 9.962 11.12C9.10867 10.48 8.54867 9.81333 8.282 9.12L7.482 7.32C7.42867 7.24 7.402 7.09333 7.402 6.88C7.402 6.8 7.38867 6.61333 7.362 6.32C7.33533 6 7.282 5.70667 7.202 5.44C7.202 5.28 7.25533 5.16 7.362 5.08C7.62867 4.89333 7.85533 4.69334 8.042 4.48C8.09533 4.42667 8.21533 4.30667 8.402 4.12C8.61533 3.93333 8.842 3.8 9.082 3.72C9.162 3.69333 9.242 3.65333 9.322 3.6C9.42867 3.52 9.50867 3.46667 9.562 3.44C9.802 3.2 10.2153 2.97333 10.802 2.76C11.202 2.52 11.682 2.33333 12.242 2.2C12.3753 2.17333 12.522 2.13333 12.682 2.08C12.8687 2.02667 13.0153 2 13.122 2C13.202 2 13.2687 2.01333 13.322 2.04C13.4553 2.06667 13.6153 2.09333 13.802 2.12C14.0153 2.14667 14.2687 2.2 14.562 2.28C14.8553 2.33333 15.0953 2.44 15.282 2.6C15.4687 2.73334 15.762 2.92 16.162 3.16C16.562 3.37333 16.882 3.6 17.122 3.84L17.482 4.2C17.7487 4.62667 18.202 4.97334 18.842 5.24C19.4553 5.61333 19.9887 5.98667 20.442 6.36C20.5753 6.38667 20.722 6.53333 20.882 6.8C20.8553 6.74667 21.0287 7.05333 21.402 7.72C21.4553 7.77333 21.522 7.88 21.602 8.04C21.762 8.6 21.842 9.18667 21.842 9.8C21.842 10.0933 21.8287 10.3067 21.802 10.44C21.7487 10.6533 21.722 10.7733 21.722 10.8C21.402 11.9733 20.922 12.9733 20.282 13.8C20.122 13.9867 19.9087 14.2933 19.642 14.72L19.002 15.64C18.7887 15.8533 18.6153 15.9867 18.482 16.04C18.1353 16.2 17.882 16.4533 17.722 16.8C17.402 17.2267 16.9887 17.6533 16.482 18.08C15.682 18.8267 15.082 19.36 14.682 19.68C14.5487 19.7333 14.442 19.8533 14.362 20.04C14.2553 20.2533 14.082 20.4667 13.842 20.68C13.6287 20.8667 13.482 20.9867 13.402 21.04C13.3753 21.04 13.3487 21.0533 13.322 21.08C13.322 21.16 13.362 21.2 13.442 21.2C13.8153 21.0933 14.0687 21.04 14.202 21.04C14.8687 21.04 15.3353 20.9733 15.602 20.84H16.042C16.2553 20.8133 16.642 20.76 17.202 20.68C17.762 20.5733 18.2687 20.5467 18.722 20.6C18.8287 20.6 18.8953 20.5733 18.922 20.52C19.162 20.4133 19.522 20.36 20.002 20.36H20.442H23.002C23.1887 20.36 23.3353 20.3867 23.442 20.44C23.5487 20.44 23.6287 20.4933 23.682 20.6C23.762 20.7067 23.802 20.8267 23.802 20.96L23.762 21.04C23.682 21.1733 23.5887 21.36 23.482 21.6C23.3753 21.84 23.2687 22.0267 23.162 22.16C22.9753 22.5333 22.762 22.7867 22.522 22.92C22.4687 22.9733 22.3753 23.08 22.242 23.24C22.1087 23.3733 22.0287 23.52 22.002 23.68C21.7087 24.0267 21.562 24.3333 21.562 24.6L21.602 24.84C21.602 25.0267 21.4953 25.1467 21.282 25.2C20.322 25.7333 19.6153 26.08 19.162 26.24C19.1087 26.2667 19.0553 26.2933 19.002 26.32C18.9753 26.3467 18.9353 26.3733 18.882 26.4C18.642 26.5867 18.362 26.76 18.042 26.92C17.7487 27.0533 17.3887 27.1867 16.962 27.32C16.562 27.4533 16.2553 27.56 16.042 27.64C15.9353 27.6933 15.762 27.7733 15.522 27.88C15.3087 27.96 15.122 28.0533 14.962 28.16C14.882 28.2667 14.762 28.36 14.602 28.44C14.4687 28.52 14.3753 28.5733 14.322 28.6C13.9753 28.68 13.322 28.9333 12.362 29.36C12.3087 29.36 12.2687 29.3733 12.242 29.4C12.2153 29.4 12.1887 29.4 12.162 29.4C11.842 29.4533 11.5087 29.5467 11.162 29.68C10.842 29.7867 10.6153 29.8667 10.482 29.92C9.842 30.1867 9.34867 30.3467 9.002 30.4L8.882 30.44C8.45533 30.7067 7.94867 30.84 7.362 30.84Z" fill="white"/>
</svg>
