<svg width="34" height="34" viewBox="0 0 34 34" fill="none" xmlns="http://www.w3.org/2000/svg">
<path d="M32.8386 26.2831C32.9186 26.4697 32.9586 26.8297 32.9586 27.3631C32.9586 27.7097 32.7986 28.2564 32.4786 29.0031C32.3453 29.3231 32.132 29.5231 31.8386 29.6031C31.652 29.6297 31.492 29.7364 31.3586 29.9231C31.0653 30.2431 30.692 30.5097 30.2386 30.7231C30.0786 30.8831 29.8653 31.0031 29.5986 31.0831C29.332 31.1364 29.1453 31.1764 29.0386 31.2031C28.9586 31.2297 28.8386 31.2431 28.6786 31.2431C28.4653 31.2431 28.3053 31.2164 28.1986 31.1631C28.1453 31.1364 28.0253 31.0831 27.8386 31.0031C27.652 30.9231 27.4786 30.8697 27.3186 30.8431C27.2386 30.8431 27.1586 30.8031 27.0786 30.7231C26.9453 30.6164 26.7186 30.5364 26.3986 30.4831C26.372 30.4831 26.2786 30.4431 26.1186 30.3631C26.0653 30.3097 26.0386 30.2564 26.0386 30.2031C26.0386 30.1231 26.052 30.0697 26.0786 30.0431C26.1053 30.0164 26.132 29.9764 26.1586 29.9231C26.212 29.8431 26.212 29.7497 26.1586 29.6431C25.9453 29.2697 25.812 28.8564 25.7586 28.4031C25.7586 28.2431 25.732 28.0564 25.6786 27.8431C25.6253 27.6297 25.5986 27.4697 25.5986 27.3631C25.5986 27.2831 25.6253 27.1631 25.6786 27.0031C25.732 26.8431 25.7586 26.7097 25.7586 26.6031C25.7853 26.4697 25.7986 26.3631 25.7986 26.2831C25.7986 26.0431 25.852 25.8297 25.9586 25.6431C25.9853 25.5897 26.0653 25.4431 26.1986 25.2031C26.3586 24.9364 26.572 24.7364 26.8386 24.6031C26.9186 24.5497 26.972 24.4964 26.9986 24.4431C27.0253 24.3897 27.052 24.3497 27.0786 24.3231C27.1853 24.2164 27.2653 24.1497 27.3186 24.1231C27.5053 24.0964 27.732 23.9497 27.9986 23.6831L28.4786 23.2031C28.612 23.0697 28.8253 22.9497 29.1186 22.8431C29.1986 22.8164 29.3053 22.8031 29.4386 22.8031C29.6253 22.8031 29.7586 22.8297 29.8386 22.8831C30.3453 23.0697 30.7453 23.3097 31.0386 23.6031L32.0786 24.6831C32.2386 24.8431 32.3586 25.0164 32.4386 25.2031C32.5453 25.4431 32.6786 25.8031 32.8386 26.2831Z" fill="white"/>
<path d="M15.04 2.00308H15.4L15.88 2.04308C15.9867 2.04308 16.0667 2.02974 16.12 2.00308C16.44 2.00308 16.8933 2.08308 17.48 2.24308C17.9067 2.37641 18.2267 2.58975 18.44 2.88308C18.5467 2.98974 18.7067 3.16308 18.92 3.40308C19.16 3.64308 19.3467 3.86974 19.48 4.08308C20.0133 4.66974 20.4267 5.06974 20.72 5.28308C21.12 5.52308 21.48 5.89641 21.8 6.40308C21.9067 6.50974 21.9067 6.60308 21.8 6.68308C21.6933 6.76308 21.3067 6.84308 20.64 6.92308C21.8667 7.00308 22.48 7.13641 22.48 7.32308C22.6933 7.69641 22.8 8.00308 22.8 8.24308C22.8 8.40308 22.7333 8.58974 22.6 8.80308C22.4667 9.06974 22.4 9.44308 22.4 9.92308C22.4 10.2964 22.2533 10.6431 21.96 10.9631C21.6133 11.3097 21.28 11.6831 20.96 12.0831C20.96 12.1364 20.9067 12.2164 20.8 12.3231L20 13.0031C19.84 13.2431 19.6267 13.4431 19.36 13.6031C19.1733 13.7097 19.0267 13.8564 18.92 14.0431C18.3867 14.5231 17.9867 14.8564 17.72 15.0431C17.5067 15.1764 17.32 15.3497 17.16 15.5631C17.08 15.6964 17.08 15.8297 17.16 15.9631C17.24 16.1764 17.4267 16.4564 17.72 16.8031C17.8533 16.9897 17.9867 17.1631 18.12 17.3231C18.2533 17.4564 18.36 17.5897 18.44 17.7231C18.52 17.8297 18.6933 18.0164 18.96 18.2831C18.96 18.2831 19.1333 18.4564 19.48 18.8031C19.7733 19.0964 20 19.6031 20.16 20.3231C20.24 20.8297 20.28 21.0964 20.28 21.1231C20.3333 21.3364 20.36 21.5097 20.36 21.6431C20.36 22.0431 20.24 22.4564 20 22.8831C19.8933 23.1231 19.76 23.3497 19.6 23.5631C19.5733 23.6164 19.5333 23.6964 19.48 23.8031C19.4267 23.9097 19.4 24.0031 19.4 24.0831C19.4 24.2431 19.36 24.3897 19.28 24.5231C19.2 24.6564 19.08 24.7897 18.92 24.9231C18.7867 25.0564 18.6933 25.1364 18.64 25.1631C18.2933 25.2964 17.9867 25.5231 17.72 25.8431C17.6133 25.9497 17.4667 26.0564 17.28 26.1631C17.12 26.2697 17 26.3497 16.92 26.4031C16.1733 26.9897 15.6667 27.3631 15.4 27.5231C15.1333 27.7364 14.8667 27.8964 14.6 28.0031C14.4133 28.0831 14.2 28.2031 13.96 28.3631C13.7467 28.5231 13.56 28.6297 13.4 28.6831C13.1867 28.7364 12.96 28.8297 12.72 28.9631C12.48 29.0697 12.3067 29.1497 12.2 29.2031C11.9067 29.3097 11.6533 29.4964 11.44 29.7631C11.44 29.8431 11.36 29.8831 11.2 29.8831C10.96 29.9631 10.72 30.0031 10.48 30.0031C10.0267 30.0031 9.69333 30.0964 9.48 30.2831C9.29333 30.3897 9.02667 30.4431 8.68 30.4431H8.12C7.69333 30.4431 7.38667 30.4831 7.2 30.5631C6.98667 30.6164 6.81333 30.6431 6.68 30.6431C6.46667 30.6431 6.25333 30.6031 6.04 30.5231C5.98667 30.5231 5.84 30.4964 5.6 30.4431C5.36 30.3897 5.17333 30.2831 5.04 30.1231C4.85333 30.0697 4.6 30.0164 4.28 29.9631C3.88 29.9631 3.50667 29.7497 3.16 29.3231L2.52 28.6431L2.08 28.2431L1.68 27.8431C1.49333 27.6031 1.34667 27.3631 1.24 27.1231C1.16 26.8831 1.08 26.5764 1 26.2031C1 26.1764 1 26.1631 1 26.1631C1.02667 26.1364 1.04 26.1097 1.04 26.0831C1.04 26.0297 1.06667 26.0031 1.12 26.0031C1.14667 26.0031 1.56 25.8164 2.36 25.4431C2.68 25.3631 2.86667 25.3231 2.92 25.3231C3.08 25.3231 3.25333 25.2964 3.44 25.2431C3.65333 25.1897 3.81333 25.1497 3.92 25.1231C4.26667 25.0431 4.52 24.8564 4.68 24.5631C4.78667 24.4031 4.98667 24.3231 5.28 24.3231C5.57333 24.3231 5.86667 24.2564 6.16 24.1231C6.45333 23.9897 6.62667 23.9097 6.68 23.8831C7.64 23.4031 8.25333 23.1097 8.52 23.0031C8.65333 22.9231 9.06667 22.7097 9.76 22.3631C10.6133 21.9631 11.2533 21.5897 11.68 21.2431C12.0533 21.0564 12.4533 20.8164 12.88 20.5231C13.3067 20.2031 13.6 19.9897 13.76 19.8831C13.7867 19.8831 13.8 19.8164 13.8 19.6831C13.8 19.6831 13.7867 19.6831 13.76 19.6831C13.76 19.6564 13.76 19.6431 13.76 19.6431C13.6533 19.6164 13.48 19.6031 13.24 19.6031C12.7867 19.6031 12.2667 19.7364 11.68 20.0031C11.4667 20.0297 11.2267 20.1364 10.96 20.3231C10.7467 20.5364 10.4933 20.6964 10.2 20.8031C9.93333 20.8831 9.76 20.9364 9.68 20.9631C9.49333 21.0164 9.29333 20.9897 9.08 20.8831C8.97333 20.8031 8.62667 20.6031 8.04 20.2831C7.56 20.1231 7.25333 19.7764 7.12 19.2431C7.06667 19.0297 6.96 18.6697 6.8 18.1631C6.66667 17.6564 6.61333 17.1897 6.64 16.7631C6.64 16.6831 6.64 16.4831 6.64 16.1631C6.64 15.8164 6.6 15.5231 6.52 15.2831V14.9231C6.6 14.7364 6.64 14.4031 6.64 13.9231C6.64 13.7631 6.74667 13.6031 6.96 13.4431L7.64 12.9631L8.28 12.5231C8.49333 12.4164 8.68 12.3097 8.84 12.2031C9 12.0964 9.16 12.0031 9.32 11.9231C9.42667 11.8697 9.48 11.7897 9.48 11.6831C9.48 11.5764 9.42667 11.5097 9.32 11.4831C9.02667 11.3497 8.77333 11.1631 8.56 10.9231C8.34667 10.6831 8.21333 10.5231 8.16 10.4431C8 10.2031 7.8 9.81641 7.56 9.28308C7.53333 9.25641 7.49333 9.10975 7.44 8.84308C7.44 8.41641 7.37333 8.09641 7.24 7.88308C7.13333 7.72308 7.08 7.44308 7.08 7.04308V6.08308C7.08 5.73641 7.13333 5.44308 7.24 5.20308L7.48 4.92308C8.01333 4.46974 8.61333 4.08308 9.28 3.76308C9.97333 3.44308 10.4133 3.24308 10.6 3.16308C10.8933 3.02975 11.2533 2.93641 11.68 2.88308C11.92 2.82975 12.3467 2.68308 12.96 2.44308H13.04C13.7067 2.12308 14.3733 1.97641 15.04 2.00308Z" fill="white"/>
</svg>
