<svg width="17" height="20" viewBox="0 0 17 20" fill="none" xmlns="http://www.w3.org/2000/svg">
<path d="M16.7557 8.25142C15.1275 8.25142 13.6181 7.71226 12.3865 6.79633V13.4057C12.3865 16.7069 9.79311 19.3917 6.60601 19.3917C5.37441 19.3917 4.23187 18.9897 3.29332 18.307C1.80291 17.2232 0.825546 15.4307 0.825546 13.4057C0.825546 10.1046 3.41892 7.41904 6.60678 7.41904C6.87167 7.41904 7.13047 7.4419 7.38547 7.47737V8.24748V10.7975C7.13885 10.7178 6.87852 10.6713 6.60678 10.6713C5.15138 10.6713 3.96697 11.8978 3.96697 13.4057C3.96697 14.4557 4.54243 15.3677 5.38278 15.8257C5.74892 16.0251 6.16529 16.1394 6.60754 16.1394C8.02944 16.1394 9.18949 14.968 9.24277 13.5082L9.24506 0.474609H12.3857C12.3857 0.756801 12.4124 1.0319 12.4596 1.2999C12.6811 2.53902 13.3913 3.60236 14.3755 4.26685C15.0605 4.72955 15.8781 4.99992 16.7549 4.99992L16.7557 8.25142Z" fill="white"/>
</svg>
