<svg width="629" height="467" viewBox="0 0 629 467" fill="none" xmlns="http://www.w3.org/2000/svg">
<rect width="629" height="467" fill="#821C7F"/>
<path d="M480.426 209.594C483.391 212.882 480.195 215.41 479.341 218.225C478.925 219.576 477.287 221.099 478.741 222.241C479.929 223.176 481.153 221.491 482.214 220.753C488.146 216.656 494.02 212.455 500.505 209.236C501.578 208.705 502.675 208.209 503.771 207.724C505.571 206.916 507.441 206.916 508.837 208.324C510.383 209.871 509.437 211.659 508.779 213.367C507.729 216.137 504.89 217.856 503.909 221.734C509.864 219.229 515.103 216.829 520.469 214.787C536.983 208.52 553.947 204.204 571.557 202.116C578.481 201.296 585.336 200.765 592.271 200.823C594.948 200.846 597.66 201.054 598.399 204.204C599.103 207.182 596.552 208.428 594.602 209.709C586.686 214.914 578.735 220.049 571.626 226.361C558.482 238.017 549.7 252.465 543.711 268.875C539.291 280.991 536.418 293.616 531.167 305.468C524.001 321.67 507.406 330.89 490.304 325.836C489.046 325.467 487.476 324.728 486.438 325.836C485.284 327.071 486.715 328.305 487.13 329.517C492.473 344.877 497.655 360.225 496.674 376.923C495.958 389.075 492.139 400.13 486.472 410.701C485.953 411.67 484.58 412.651 485.549 413.84C486.253 414.705 487.557 414.209 488.55 413.886C510.73 406.697 531.744 396.83 550.173 382.636C567.806 369.053 583.847 353.509 598.687 336.799C609.385 324.751 619.379 312.161 629.003 299.259C629.003 303.183 629.003 307.106 629.003 311.03C628.599 311.157 628.01 311.157 627.803 311.434C610.758 335.045 589.652 354.755 568.614 374.708C543.999 398.065 514.215 410.943 482.734 421.145C480.795 421.768 478.614 420.937 476.86 422.853C462.596 438.489 444.721 449.06 426.107 458.546C424.48 459.319 422.472 459.388 420.914 461.154C424.953 461.569 428.38 460.785 431.738 459.573C441.674 458.846 450.445 454.922 458.88 449.937C464.212 446.787 468.909 442.54 474.898 440.509C475.336 441.951 474.309 442.701 473.467 443.544C461.892 455.061 448.356 462.758 431.969 464.939C430.607 465.124 429.223 464.962 428.853 466.739C412.859 466.739 396.853 466.739 380.859 466.739C387.332 464.235 394.406 464.443 400.961 462.377C428.207 453.791 452.718 440.486 472.717 419.795C489.357 402.577 494.435 381.701 490.338 358.529C487.673 343.457 482.283 329.286 474.402 316.062C469.139 307.233 468.862 297.898 472.74 288.296C477.991 275.279 487.534 265.782 497.839 256.896C505.606 250.203 513.811 244.075 522.8 239.09C524.231 238.294 526.274 237.359 527.359 238.882C528.686 240.763 526.343 241.617 525.247 242.69C524.601 243.325 523.862 243.844 523.158 244.421C522.627 244.294 522.35 244.491 522.42 245.056C522.05 245.344 521.693 245.633 521.323 245.921C515.299 248.449 510.58 252.903 505.548 256.85C495.474 264.755 486.069 273.387 479.687 284.707C474.84 293.293 473.178 302.479 478.233 311.353C483.807 321.139 493.523 323.101 503.713 321.682C513.488 320.32 520.919 315.046 524.785 305.549H524.797C525.478 305.606 525.605 305.225 525.512 304.66C526.228 303.356 527.047 302.087 527.636 300.725C531.444 292.012 533.694 282.78 536.625 273.779C542.672 255.246 551.246 238.19 565.845 224.792C570.691 220.349 575.965 216.356 581.054 212.155C584.147 211.082 586.593 209.109 589.005 206.755C587.32 205.566 585.786 205.97 584.355 206.028C562.833 206.836 542.176 211.855 522.143 219.46C510.822 223.765 499.824 228.865 490.258 236.551C489.023 236.216 487.765 238.767 486.519 236.47C485.642 234.855 485.63 233.412 486.83 231.97C487.765 230.839 488.642 229.673 489.542 228.519C493.304 225.75 495.508 221.514 498.947 218.445C499.951 218.376 500.274 217.741 500.286 216.841L500.309 216.795C502.005 216.621 502.628 215.548 501.821 214.21C501.405 213.529 500.69 214.44 500.378 215.064C500.113 215.19 499.847 215.225 499.559 215.144C499.224 215.329 498.878 215.502 498.543 215.687L498.313 215.917C498.036 216.021 497.828 216.194 497.678 216.437C489.877 221.272 482.387 226.546 475.371 232.477L475.106 232.731C474.806 232.87 474.517 233.02 474.217 233.158C472.301 233.331 470.317 233.701 469.347 231.346C469.416 228.208 470.224 225.253 471.667 222.472C473.398 221.722 473.882 219.818 472.959 218.906C471.817 217.775 471.24 219.668 470.593 220.522C463.058 227.204 456.63 234.901 450.456 242.794C448.691 245.056 446.336 247.237 446.129 250.468C445.944 250.641 445.863 250.849 445.886 251.103C444.409 251.495 444.271 252.649 444.271 253.896C444.04 254.276 443.867 254.703 443.578 255.015C442.101 256.584 442.805 260.693 439.782 259.896C437.554 259.308 439.274 255.973 438.858 253.907C441.19 251.426 440.624 249.383 437.924 247.664C428.899 241.917 419.229 237.647 408.866 234.912C403.569 233.516 398.249 232.65 391.394 233.435C398.422 237.313 403.454 241.732 408.912 245.587C412.305 248.506 415.721 251.403 419.09 254.357C420.394 255.5 422.46 256.642 421.214 258.696C419.679 261.224 417.844 258.916 416.148 258.465C415.825 258.235 415.49 258.004 415.167 257.773L415.132 257.715C415.144 257.069 414.832 256.804 414.186 256.942C414.047 256.746 413.863 256.654 413.621 256.642C410.309 251.68 405.069 248.933 400.603 245.31C388.902 235.824 375.423 230.469 360.525 228.669C354.305 227.919 348.604 229.258 343.711 233.378C342.973 234.001 342.315 234.751 342.569 235.651C342.869 236.701 344 236.528 344.888 236.551C348.95 236.655 352.909 237.347 356.925 238.063C362.279 239.009 367.137 241.502 372.457 242.39C372.977 242.633 373.496 242.863 374.027 243.106C374.442 244.098 375.389 243.96 376.185 244.133C387.944 249.153 398.803 255.638 408.589 263.889C410.089 265.147 411.809 266.243 409.651 268.332C407.1 268.309 405.104 267.017 403.188 265.528C386.525 252.684 368.141 243.833 347.081 240.982C341.519 240.232 336.303 241.144 331.363 243.544C322.962 247.652 318.958 254.9 317.654 263.843C317.365 265.851 317.435 267.847 314.7 267.997C312.773 266.567 313.153 264.478 313.384 262.597C314.792 250.803 320.943 242.598 332.044 238.132C333.637 237.497 335.853 237.624 336.58 235.559C338.034 231.439 341.553 229.269 344.681 226.73C346.862 225.877 349.504 225.646 350.058 222.645C351.674 213.817 352.112 204.943 350.762 195.792C348.512 200.731 346.273 205.67 344.023 210.609C341.392 213.967 340.469 218.595 336.453 220.926C335.876 220.926 335.287 220.914 334.71 220.914C333.879 220.233 333.048 219.553 332.217 218.872C331.964 208.082 334.052 197.246 331.687 185.337C329.24 192.687 327.174 198.908 325.097 205.128C324.532 206.524 323.932 207.909 323.412 209.317C322.755 211.128 321.808 212.882 319.639 212.49C317.042 212.017 317.285 209.721 317.412 207.747C317.539 205.797 317.839 203.847 318.012 201.896C318.254 199.011 319.143 196.126 318.277 191.972C313.511 202.058 307.245 209.917 302.248 218.583C301.602 219.691 301.152 220.718 299.698 220.73C298.255 220.741 297.517 219.887 297.101 218.641C296.016 215.364 293.801 212.929 291.204 210.805C280.818 202.335 269.405 201.469 257.242 206.282C256.423 206.605 255.269 206.801 255.43 207.92C255.615 209.178 256.954 209.12 257.911 209.49C273.283 215.364 282.272 227.031 287.419 242.136C287.938 243.671 288.654 245.645 286.323 246.279C284.246 246.845 283.542 245.16 282.965 243.487C281.199 238.34 278.776 233.504 275.66 229.027C266.59 215.964 253.134 210.101 238.997 213.425C230.712 215.375 223.545 219.414 217.568 227.111C219.472 226.673 220.314 226.453 221.18 226.28C241.432 222.23 258.777 231.093 266.186 249.891C271.956 264.547 271.413 279.284 265.366 293.928C260.97 304.579 253.457 311.457 242.448 314.607C233.574 317.135 224.549 318.773 215.294 319.027C214.279 319.05 212.825 318.358 212.19 320.181C212.755 320.643 213.286 321.174 213.898 321.555C232.72 333.475 252.176 344.277 271.794 354.847C292.82 366.18 314.538 371.788 338.334 366.907C339.672 366.826 341.046 366.918 342.35 366.653C350.751 364.968 359.233 363.964 367.761 363.11C376.081 362.279 384.274 363.479 392.525 363.376C395.768 364.068 399.069 364.564 402.231 365.499C413.182 368.753 422.183 374.546 425.091 386.317C428.415 399.796 425.068 412.536 417.844 423.88C405.058 443.971 385.74 454.149 362.625 457.6C340.78 460.865 319.004 459.827 297.378 455.719C289.773 454.276 282.134 452.776 274.76 450.295C264.743 446.683 254.738 443.071 244.087 439.216C245.033 441.801 246.752 442.055 247.918 442.828C261.57 451.876 276.191 458.834 292.081 463.023C293.812 463.773 295.774 464.293 295.716 466.785C293.905 466.785 292.093 466.785 290.281 466.785C282.238 464.42 274.217 461.973 266.451 458.754C260.196 455.361 253.942 451.956 247.687 448.564C247.399 448.368 247.11 448.171 246.822 447.975L246.602 447.721C246.406 447.548 246.198 447.375 246.002 447.202C245.437 446.948 244.883 446.706 244.317 446.452C244.04 446.244 243.763 446.036 243.486 445.829L243.302 445.609C243.025 445.425 242.736 445.24 242.459 445.067L242.206 444.986C241.467 443.832 240.221 442.39 239.217 443.775C238.201 445.182 239.932 446.198 241.282 446.81L241.409 446.994C241.444 448.01 241.952 448.61 242.967 448.76C243.14 449.06 243.313 449.372 243.498 449.672C243.683 449.856 243.867 450.041 244.052 450.225L244.41 450.456C244.594 450.687 244.767 450.918 244.952 451.149C244.975 451.31 245.033 451.449 245.148 451.564C245.356 451.76 245.552 451.956 245.76 452.153L246.129 452.337C246.348 452.568 246.568 452.787 246.787 453.018C248.379 454.599 249.972 456.18 251.553 457.773C251.795 457.98 252.026 458.2 252.268 458.407L252.43 458.696C252.638 458.904 252.845 459.111 253.065 459.319C255.523 462.123 259.527 463.243 261.304 466.797C258.892 466.797 256.469 466.797 254.057 466.797C254.392 465.124 252.822 464.927 251.98 464.247C243.694 457.611 235.812 450.71 232.42 440.07C231.612 437.543 229.581 435.731 227.411 434.208C227.134 433.435 226.903 432.627 225.98 432.338L226.038 432.373C224.03 430.688 222.287 428.657 219.714 427.746V427.803C219.299 426.395 218.018 425.772 217.037 424.907C208.163 417.129 201.735 407.643 196.969 396.899C189.283 379.589 195.099 365.095 212.744 358.148C215.964 356.878 219.322 356.013 222.599 354.905C223.534 354.594 225.022 354.997 225.299 353.74C225.623 352.228 224.018 351.859 223.072 351.316C217.995 348.362 212.94 345.339 208.359 341.669C202.15 336.695 195.515 332.021 191.96 324.543C189.341 319.039 191.707 314.584 197.58 313.315C198.561 313.107 199.727 313.511 200.546 312.484C200.211 310.199 198.527 308.537 197.603 306.518C196.657 304.475 195.376 302.583 194.395 300.552C180.605 272.025 170.346 242.206 162.026 211.705C158.529 198.873 156.313 185.902 161.518 172.723C164.645 164.807 169.619 157.987 173.312 150.428C177.512 141.808 180.859 133.049 179.878 123.182C178.805 112.438 169.746 102.122 160.133 102.376C150.359 102.641 141.219 106.103 134.249 113.315C128.225 119.559 130.279 125.109 138.773 127.29C143.481 128.502 148.051 127.821 152.632 126.84C154.398 126.459 156.302 125.594 157.652 127.325C158.875 128.906 157.548 130.337 156.902 131.872C155.967 134.099 154.848 136.095 153.475 138.103C148.385 145.57 143.839 153.371 141.104 162.049C140.492 163.999 139.95 165.753 137.665 165.188C135.161 164.565 135.276 162.649 135.968 160.491C137.469 155.863 139.857 151.686 142.211 147.497C145.154 142.235 145.223 142.258 140.007 139.246C139.834 139.142 139.488 139.338 139.096 139.419C138.83 140.538 138.519 141.704 138.299 142.881C136.903 150.209 131.583 153.094 124.567 150.324C114.031 146.158 103.414 128.791 104.718 117.701C104.96 115.612 105.272 113.177 108.203 113.408C110.996 113.627 110.084 115.981 110.119 117.643C110.35 129.021 115.473 137.861 124.475 144.462C128.537 147.439 131.491 146.978 133.36 143.804C136.338 138.761 135.841 132.449 132.322 130.418C127.117 127.417 125.328 123.909 126.056 118.22C126.148 117.493 126.436 116.466 126.079 116.073C121.74 111.273 119.847 104.672 114.689 100.494C111.169 97.6441 106.518 97.1941 104.003 99.9521C101.291 102.918 98.6365 106.091 98.2557 110.43C98.1056 112.138 97.8056 113.916 95.7399 114.204C93.9397 114.446 93.2588 112.969 92.4972 111.608C88.4582 104.407 84.3038 97.2633 80.2533 90.0739C75.7411 82.0882 71.3444 74.0218 65.5167 66.89C64.0396 65.0783 62.0893 62.7472 59.5275 63.6473C56.6771 64.6397 57.5772 67.6978 57.5772 70.0174C57.5772 71.356 57.8542 72.7062 58.1311 74.0218C60.3006 84.4308 65.1013 93.8359 69.4057 103.426C76.5374 119.305 83.3345 135.345 91.2047 150.89C91.1701 151.651 91.1009 152.436 92.0356 152.794C92.2318 153.117 92.428 153.428 92.6357 153.752C92.7742 156.867 94.6436 159.372 95.6938 162.164C101.395 177.328 107.395 192.341 107.349 208.993C107.291 227.908 110.384 246.498 115.023 264.755C121.901 291.816 128.906 318.843 137.907 345.304C146.862 371.592 157.398 397.188 169.988 421.952C172.492 426.869 174.893 431.819 176.358 437.266C178.978 447.052 178.92 456.884 178.02 466.82C176.208 466.82 174.397 466.82 172.585 466.82C173.473 460.081 173.635 453.364 173.231 446.544C172.735 437.993 168.096 431.196 164.703 423.903C152.274 397.188 140.573 370.173 131.456 342.142C125.178 322.835 119.755 303.252 114.608 283.6C110.488 267.882 106.888 252.061 104.372 236.032C103.16 228.311 102.318 220.441 102.375 212.64C102.502 195.042 97.5402 178.839 90.4662 163.03C79.007 137.319 66.6707 112.081 55.9154 86.1272C53.3189 79.861 51.4841 73.364 52.1303 66.4054C52.8573 58.6043 58.235 55.6386 65.1474 59.3198C69.9134 61.8586 72.3484 66.4631 75.1988 70.6752C81.7073 80.288 86.7157 90.7663 92.6357 100.714C93.3166 101.868 94.1013 102.953 94.8975 104.164C96.8132 102.86 96.7208 100.668 97.8633 99.1328C101.914 93.6859 106.172 91.8741 112.727 93.3974C114.781 93.8705 116.454 94.3552 117.227 91.5048C119.385 83.4615 123.586 77.5184 132.922 77.3568C134.284 77.3337 134.63 76.4221 134.78 75.2681C135.876 66.9131 137.192 58.5697 138.057 50.1917C138.68 44.1563 139.777 38.2824 142.142 32.7086C143.862 28.635 146.551 25.2422 151.305 25.0114C156.129 24.7806 158.898 28.0811 160.999 31.9816C163.537 36.6899 164.599 41.8367 165.384 47.0759C167.738 62.6433 166.526 78.3954 167.911 94.0206C168.176 96.9863 169.03 98.8327 171.765 100.448C182.763 106.992 187.864 122.374 184.621 135.865C181.863 147.37 175.897 157.237 170.15 167.288C163.514 178.909 162.776 190.968 166.065 203.847C170 219.299 174.697 234.485 179.578 249.637C186.375 270.732 195.63 290.72 206.397 310.442C206.778 306.449 208.439 302.871 209.074 299.005C209.409 296.997 207.863 295.993 206.812 294.816C194.857 281.349 191.949 265.816 196.161 248.633C196.726 246.314 196.796 244.064 196.623 241.594C194.972 217.729 198.619 195.169 213.367 175.354C219.91 166.572 226.892 158.091 232.304 148.489C238.051 138.276 238.582 126.967 239.505 115.727C239.678 113.627 239.69 111.504 239.771 109.403C239.84 107.661 240.209 105.757 241.975 105.307C243.706 104.868 244.964 106.415 245.933 107.788C252.095 116.512 257.958 125.421 262.862 134.918C267.697 144.266 272.198 153.775 274.483 164.149C274.598 164.668 275.014 165.118 275.648 166.203C277.056 157.675 278.303 149.816 279.664 141.969C280.195 138.923 280.299 134.572 284.05 134.514C288.089 134.457 287.927 138.969 288.204 141.935C288.758 148.062 289.404 154.155 290.547 160.814C292.912 158.148 292.474 155.032 293.812 152.644C294.089 152.147 293.905 151.397 294.182 150.89C295.451 148.547 295.128 144.404 298.913 144.693C302.906 144.993 302.571 148.87 302.86 151.767C304.429 167.784 304.395 183.929 306.656 200.396C309.738 198.342 310.776 195.388 311.953 192.653C314.03 187.829 315.854 182.89 317.781 178.009C318.519 176.128 319.304 174.247 321.889 174.685C324.474 175.124 324.624 177.109 324.624 179.163C324.613 181.782 324.624 184.39 325.709 187.148C326.655 183.917 327.613 180.686 328.548 177.455C329.182 175.262 329.702 172.827 332.552 172.7C335.703 172.562 335.922 175.216 336.36 177.397C338.103 186.052 337.249 194.834 337.457 203.558C337.503 205.439 337.468 207.309 338.034 209.294C342.384 202.866 345.085 195.803 348.2 188.937C348.443 188.395 348.385 187.691 348.697 187.206C349.943 185.279 350.381 182.105 353.497 182.59C356.751 183.086 356.821 186.167 356.925 188.66C357.317 198.307 356.948 207.943 355.701 217.533C354.997 222.957 355.39 223.695 360.802 223.915C365.533 224.111 370.126 224.976 374.569 226.384C379.208 227.861 383.617 228.519 388.613 228.092C402.115 226.95 414.89 230.412 427.053 236.147C431.415 238.201 435.823 240.255 439.851 242.863C442.459 244.548 443.555 244.179 445.205 241.779C452.926 230.562 462.492 220.972 472.498 211.809C472.705 211.613 473.051 211.567 473.328 211.452C474.298 211.371 474.921 210.875 475.175 209.928L475.406 209.767C477.056 209.709 478.741 209.651 480.426 209.594ZM222.414 231.427L222.426 231.3C212.929 231.9 201.919 242.84 199.935 253.699C197.753 265.655 200.454 276.756 206.374 287.085C207.597 289.208 209.224 291.781 212.305 292.139C215.571 295.682 219.887 296.824 224.445 297.101C237.278 297.886 249.095 295.578 257.865 285.1C270.686 269.786 264.397 249.314 253.503 238.951C244.987 230.862 234.508 227.734 222.726 231.15C222.553 231.185 222.449 231.277 222.414 231.427ZM260.104 294.032C261.823 292.139 262.481 289.843 263.151 286.6C260.45 288.885 258.385 290.593 256.907 292.924C246.775 300.575 235.212 303.137 222.841 301.717C213.125 300.609 213.159 300.286 211.694 310.211C211.648 310.511 211.625 310.811 211.567 311.099C211.151 313.557 211.913 314.85 214.671 314.504C219.149 313.95 223.672 313.719 228.104 312.946C241.132 310.707 253.93 307.926 260.104 294.032ZM197.2 318.404L197.142 318.439C193.991 321.243 196.357 323.632 197.984 325.697C203.143 332.287 209.559 337.595 216.633 341.946C238.87 355.598 261.789 368.003 286.115 377.57C302.006 383.813 318.381 387.494 335.622 384.228C351.455 381.228 367.264 377.916 383.559 379.716C394.014 381.459 403.2 384.551 405.473 396.98C406.962 405.104 404.562 411.774 399.53 417.867C390.714 428.53 379.047 434.912 366.422 439.839C364.783 439.989 363.179 440.278 361.921 441.467H361.898C347.196 443.602 332.529 442.817 317.746 441.882C286.15 439.863 256.827 430.965 229.523 415.098C223.453 411.566 218.422 407.02 214.383 401.146C206.178 389.202 211.036 367.311 231.543 365.326C236.216 364.876 240.913 364.541 245.575 364.149C234.901 354.363 223.972 358.713 213.056 363.283C199.427 369.434 195.261 379.578 200.696 393.299C207.135 409.547 219.022 420.602 234.266 428.392C272.544 447.964 312.819 458.05 356.059 453.803C369.572 452.476 382.439 448.921 393.899 441.328C410.862 430.088 421.491 415.04 421.583 393.945C421.618 385.463 417.844 378.897 410.712 374.292C403.65 369.734 395.641 368.303 387.506 367.518C371.557 365.995 355.932 368.903 340.284 371.338C326.771 373.45 313.303 373.958 299.813 370.98C286.519 368.049 274.829 361.46 262.931 355.321C241.432 344.231 220.787 331.733 200.777 318.173C199.519 317.158 198.319 317.008 197.2 318.404ZM292.208 419.61C293.362 414.451 297.967 413.021 301.833 410.886C303.46 409.986 305.387 409.593 306.714 407.966C304.995 406.42 303.125 405.9 301.302 405.277C291.597 401.977 281.615 401.007 271.448 401.815C259.781 402.738 248.691 405.912 238.143 410.955C237.197 411.405 235.547 411.59 235.87 413.24C236.02 413.99 236.932 414.209 237.74 414.117C246.614 419.206 255.903 423.407 265.516 426.892C281.315 432.615 297.736 435.777 314.4 437.197C327.463 438.305 340.595 438.962 353.728 437.589C361.76 437.231 368.834 433.931 375.815 430.331C377.962 429.223 377.627 427.988 376.069 426.499C372.665 423.268 369.018 420.383 364.853 418.214C348.627 409.789 331.375 408.935 313.777 411.82C308.837 412.628 303.76 413.921 299.836 417.579C299.64 417.556 299.502 417.625 299.409 417.798C297.99 417.625 297.17 418.502 296.443 419.529C295.024 419.921 293.639 420.81 292.208 419.61ZM246.856 118.578C246.983 117.227 246.545 115.923 245.16 115.9C243.602 115.877 244.144 117.447 244.087 118.381C243.44 128.917 242.679 139.407 237.67 149.032C233.077 157.86 227.146 165.811 220.868 173.427C206.466 190.899 200.685 211.025 201.308 233.308C201.342 234.566 200.673 236.355 202.208 236.92C203.662 237.463 204.435 235.755 205.439 234.912C208.786 232.073 211.59 229.131 213.69 224.919C216.944 218.364 223.361 214.556 230.008 211.417C238.351 207.47 247.675 207.413 256.111 202.462C269.659 194.488 285.746 198.411 296.94 209.594C297.944 210.598 298.728 212.571 300.459 211.648C302.006 210.828 302.029 208.982 301.902 207.216C301.002 193.691 299.294 180.224 299.202 166.642C299.19 164.057 298.728 161.483 298.475 158.91C295.647 164.992 293.893 171.131 292.104 177.282C291.585 179.07 290.835 180.824 288.585 180.79C286.011 180.755 285.954 178.539 285.827 176.843C285.377 170.831 285.146 164.807 284.823 158.795C284.984 155.748 285.227 152.69 283.496 148.593C283.103 153.786 281.014 157.398 281.395 161.495C281.465 165.857 279.064 169.873 279.537 174.304C278.545 176.555 278.499 180.074 275.302 179.994C271.875 179.913 272.313 176.37 271.817 174.016C270.155 166.203 268.124 158.518 264.928 151.167C259.954 139.719 254.426 128.583 246.856 118.578ZM244.433 369.884C241.109 369.884 237.774 369.653 234.474 369.93C227.457 370.507 221.007 372.504 217.845 379.566C213.159 390.044 217.591 402.254 227.781 407.897C229.708 408.958 231.427 408.832 233.343 407.885C236.701 406.223 240.059 404.492 243.579 403.2C257.704 397.995 272.256 395.26 287.315 397.141C295.532 398.169 303.644 400.027 310.834 404.481C312.876 405.75 314.931 406.247 317.262 406.12C324.139 405.75 330.925 405.289 337.918 405.831C354.27 407.124 368.707 412.155 380.639 423.603C382.22 425.126 383.882 425.541 385.428 424.122C390.968 419.079 397.245 414.613 400.13 407.285C402.784 400.546 399.565 390.379 393.829 387.771C389.421 385.775 384.724 384.667 379.866 384.39C367.749 383.697 355.84 385.232 344.034 387.748C332.887 390.114 321.693 390.518 310.384 389.144C297.528 387.586 285.746 382.636 273.79 378.054C264.316 374.408 255.869 366.607 244.433 369.884ZM140.919 69.9712C140.907 79.1109 140.931 79.0878 145.397 85.4579C146.424 86.9235 147.289 88.5275 148.097 90.1431C149.366 92.6819 149.897 96.3632 151.917 97.5287C153.913 98.6827 157.375 97.1133 160.179 97.1594C162.337 97.1941 162.672 96.3747 162.556 94.5283C162.199 88.816 161.899 83.1037 161.703 77.3914C161.252 64.4666 161.633 51.4495 157.917 38.894C156.902 35.4667 155.783 30.6083 151.42 30.7006C147.381 30.793 146.562 35.4782 145.466 38.8248C141.969 49.4993 141.577 60.6469 140.919 69.9712ZM120.043 96.5363C119.685 97.7364 120.701 98.5096 121.393 99.4905C122.951 101.683 124.428 103.933 125.871 106.207C128.941 111.088 128.906 111.088 133.833 107.626C135.172 106.68 136.557 105.803 137.999 105.018C147.739 99.7213 147.751 99.7329 141.935 90.0854C141.785 89.8315 141.681 89.543 141.519 89.2892C138.346 84.3847 133.603 81.9036 129.587 83.046C125.548 84.1885 119.974 91.9549 120.043 96.5363ZM140.111 132.956C143.365 137.988 148.408 137.999 150.243 132.956C146.885 132.956 143.573 132.956 140.111 132.956Z" fill="#0D0815"/>
<path d="M295.74 466.751C295.809 464.27 293.847 463.739 292.105 462.989C291.02 461.615 289.312 461.327 287.881 460.542C283.173 457.946 278.453 455.372 274.137 452.118C272.025 450.525 273.779 450.595 274.783 450.26C282.157 452.741 289.796 454.241 297.401 455.684C319.027 459.804 340.803 460.831 362.648 457.565C385.775 454.103 405.081 443.936 417.867 423.845C425.091 412.501 428.438 399.761 425.114 386.282C422.206 374.5 413.194 368.707 402.254 365.464C399.092 364.518 395.78 364.033 392.549 363.341C388.279 361.621 383.663 361.898 378.47 361.552C382.89 358.806 386.813 356.832 390.16 354.155C393.056 351.835 396.911 349.931 397.049 345.327L397.038 345.35C398.93 345.373 399.011 344.104 398.907 342.719C399.565 341.369 400.465 339.822 398.769 338.772C396.795 337.549 395.422 339.061 394.187 340.376C388.244 346.7 381.193 351.062 372.607 352.77C370.784 352.089 368.511 353.578 366.641 351.732C369.619 349.816 373.577 350.485 375.4 347.127C375.504 346.942 375.654 346.873 375.862 346.919C377.016 347.208 377.708 346.619 378.204 345.685C396.472 336.003 402.542 318.981 395.964 300.886C386.248 274.206 354.444 257.992 326.505 265.228C326.632 263.185 327.994 262.135 329.54 261.039C343.123 251.391 357.79 250.837 373.034 255.973C382.924 259.296 392.249 263.958 401.434 268.851C404.423 270.444 407.043 270.375 409.674 268.332C411.832 266.243 410.101 265.147 408.612 263.889C398.815 255.65 387.956 249.153 376.208 244.133C375.816 243.106 375.008 242.956 374.05 243.106C373.531 242.863 373.011 242.632 372.492 242.39C373.669 241.04 375.181 241.259 376.646 241.582C384.863 243.359 392.629 246.348 400.165 250.087C404.642 252.303 408.451 255.95 413.667 256.642C413.909 256.642 414.094 256.746 414.232 256.942C414.544 257.196 414.855 257.461 415.178 257.715L415.213 257.773C415.536 258.004 415.871 258.235 416.194 258.465C417.89 258.927 419.725 261.223 421.26 258.696C422.506 256.642 420.441 255.5 419.137 254.357C415.767 251.403 412.351 248.506 408.958 245.587C409.766 243.81 411.093 244.906 412.04 245.206C415.479 246.302 418.814 247.779 422.287 248.772C427.872 250.353 432.592 254.726 438.905 253.919C439.32 255.984 437.589 259.308 439.828 259.908C442.84 260.704 442.147 256.596 443.625 255.026C443.925 254.715 444.086 254.276 444.317 253.907C445.586 253.399 446.175 252.488 445.933 251.114C445.909 250.86 446.002 250.653 446.175 250.48C447.525 250.457 448.275 249.453 449.175 248.679C455.153 243.625 460.058 237.52 465.654 232.096C466.693 231.081 467.628 229.015 469.382 231.346C470.351 233.712 472.348 233.331 474.252 233.158C474.54 233.02 474.84 232.87 475.14 232.731L475.406 232.477C478.937 232.431 481.995 230.873 485.122 229.5C486.507 228.888 487.754 227.307 489.577 228.519C488.677 229.673 487.788 230.839 486.865 231.97C485.676 233.412 485.688 234.855 486.553 236.47C487.8 238.778 489.058 236.216 490.292 236.562C491.331 236.897 492.439 237.013 493.373 236.447C503.69 230.308 515.173 227.03 526.32 222.911C541.184 217.418 556.313 213.021 572.272 212.248C575.215 212.109 578.135 210.494 581.089 212.167C576.011 216.367 570.738 220.349 565.879 224.803C551.27 238.19 542.707 255.246 536.66 273.79C533.717 282.792 531.467 292.024 527.67 300.736C527.07 302.098 526.262 303.367 525.547 304.671C525.305 304.972 525.074 305.26 524.831 305.56H524.82C518.842 306.945 513.857 310.949 507.533 311.653C495.162 313.026 488.677 305.156 490.95 294.562C494.066 280.034 502.975 268.932 512.195 257.9C515.392 254.069 519.973 251.207 521.346 245.956C521.716 245.667 522.073 245.379 522.443 245.09C522.685 244.883 522.939 244.664 523.181 244.456C523.874 243.879 524.624 243.348 525.27 242.725C526.378 241.652 528.72 240.798 527.382 238.917C526.309 237.405 524.254 238.34 522.824 239.124C513.834 244.11 505.629 250.237 497.863 256.931C487.557 265.816 478.002 275.314 472.763 288.331C468.886 297.932 469.163 307.268 474.425 316.096C482.307 329.332 487.707 343.492 490.362 358.563C494.447 381.736 489.381 402.611 472.74 419.829C452.741 440.52 428.23 453.837 400.984 462.412C394.43 464.477 387.356 464.27 380.882 466.774C352.493 466.751 324.116 466.751 295.74 466.751ZM440.543 394.603C440.613 402.115 438.778 409.212 435.939 416.113C431.392 427.145 423.36 435.731 415.755 444.582C414.959 445.506 413.724 446.117 414.532 447.306C415.582 448.852 416.829 447.294 417.567 446.798C421.929 443.844 425.622 440.116 428.946 436.031C441.109 421.133 447.606 404.504 444.375 384.978C443.255 378.239 441.109 371.846 437.381 366.053C436.608 364.864 435.593 363.652 434.104 364.31C432.212 365.153 433.077 366.86 433.481 368.257C433.689 368.961 434.185 369.584 434.52 370.265C438.247 377.939 440.578 385.971 440.543 394.603Z" fill="#AB72FA"/>
<path d="M428.865 466.751C429.234 464.974 430.619 465.135 431.981 464.951C448.356 462.77 461.904 455.061 473.478 443.555C474.321 442.713 475.359 441.974 474.909 440.52C478.614 436.389 482.353 432.269 486.011 428.092C487.673 426.199 489.554 425.276 492.173 424.93C511.733 422.333 530.059 415.675 547.957 407.655C572.734 396.553 593.956 380.512 612.87 361.195C618.121 355.828 623.152 350.208 628.991 345.431C628.991 370.484 628.991 395.526 628.991 420.579C617.428 433.885 605.577 446.856 590.886 456.896C586.086 460.185 580.8 462.781 576.473 466.751C527.266 466.751 478.06 466.751 428.865 466.751Z" fill="#AC72FB"/>
<path d="M227.446 434.162C229.615 435.685 231.646 437.497 232.454 440.024C235.847 450.652 243.729 457.565 252.014 464.2C252.857 464.881 254.426 465.077 254.092 466.751C228.738 466.751 203.385 466.751 178.02 466.751C178.92 456.826 178.989 446.994 176.358 437.197C174.904 431.75 172.492 426.811 169.988 421.883C157.398 397.118 146.85 371.523 137.907 345.234C128.894 318.773 121.889 291.735 115.023 264.685C110.384 246.429 107.291 227.838 107.349 208.924C107.395 192.272 101.406 177.258 95.6937 162.095C94.6436 159.302 92.7741 156.798 92.6356 153.682C93.2703 154.028 94.1243 154.225 94.5051 154.755C100.01 162.291 105.537 169.78 109.265 178.47C116.847 196.184 118.785 215.052 120.886 233.862C122.813 251.114 126.367 267.997 131.341 284.592C136.58 302.052 143.123 319.05 149.862 335.991C157.133 354.282 166.492 371.384 177.351 387.736C187.044 402.346 199.588 414.174 213.575 424.537C215.398 425.887 216.852 428.322 219.749 427.757V427.699C220.579 431 223.084 431.992 226.073 432.327L226.015 432.292C226.015 433.285 226.569 433.85 227.446 434.162Z" fill="#7E36E1"/>
<path d="M628.992 345.431C623.141 350.197 618.121 355.828 612.87 361.194C593.968 380.524 572.734 396.553 547.958 407.654C530.071 415.675 511.734 422.333 492.173 424.93C489.554 425.276 487.673 426.188 486.011 428.092C482.353 432.269 478.614 436.377 474.91 440.52C468.909 442.54 464.224 446.798 458.881 449.948C450.445 454.934 441.663 458.857 431.738 459.584C429.869 459.192 427.757 460.184 426.107 458.557C444.721 449.071 462.585 438.512 476.86 422.864C478.614 420.948 480.795 421.791 482.734 421.156C514.215 410.943 543.999 398.076 568.614 374.719C589.64 354.767 610.747 335.056 627.803 311.445C627.999 311.168 628.588 311.168 629.003 311.042C628.992 322.501 628.992 333.96 628.992 345.431Z" fill="#7E36E1"/>
<path d="M628.991 431.438C626.753 432.108 625.933 434.231 624.652 435.823C615.49 447.11 604.746 456.642 592.802 464.87C592.052 465.389 591.244 465.793 590.967 466.751C586.132 466.751 581.308 466.751 576.473 466.751C580.812 462.781 586.086 460.184 590.886 456.895C605.588 446.856 617.428 433.873 628.991 420.579C628.991 424.203 628.991 427.815 628.991 431.438Z" fill="#0D0815"/>
<path d="M247.721 448.529C253.976 451.922 260.231 455.326 266.485 458.719C266.358 458.8 266.22 458.857 266.116 458.961C266.035 459.042 265.943 459.238 265.978 459.284C268.366 462.088 272.082 463.45 274.021 466.751C269.797 466.751 265.574 466.751 261.339 466.751C259.561 463.196 255.557 462.077 253.099 459.273C252.891 459.065 252.684 458.857 252.464 458.65L252.303 458.361C252.06 458.153 251.83 457.934 251.587 457.715C249.995 456.134 248.402 454.553 246.821 452.96C246.602 452.741 246.383 452.51 246.163 452.279C246.163 452.279 245.794 452.095 245.794 452.106C245.598 451.91 245.39 451.714 245.183 451.518C245.079 451.402 245.009 451.264 244.986 451.102C244.802 450.872 244.629 450.641 244.444 450.398L244.086 450.168C244.029 449.856 243.855 449.671 243.532 449.614C243.359 449.314 243.186 449.002 243.001 448.702C242.84 447.79 242.274 447.248 241.444 446.925L241.317 446.74C241.628 446.129 241.928 445.517 242.24 444.917L242.494 444.998C242.771 445.182 243.059 445.367 243.336 445.54L243.521 445.759C243.521 446.336 243.821 446.521 244.363 446.383C244.929 446.636 245.483 446.879 246.048 447.133C246.129 447.444 246.325 447.617 246.648 447.652L246.867 447.906C247.144 448.137 247.433 448.333 247.721 448.529Z" fill="#7A35D8"/>
<path d="M274.01 466.751C272.071 463.462 268.355 462.088 265.966 459.284C265.932 459.238 266.024 459.042 266.105 458.961C266.209 458.857 266.347 458.8 266.474 458.719C274.24 461.927 282.261 464.385 290.304 466.751C284.88 466.751 279.445 466.751 274.01 466.751Z" fill="#AB72FA"/>
<path d="M480.426 209.594C478.741 209.651 477.056 209.709 475.371 209.755C476.964 207.032 478.648 207.066 480.426 209.594Z" fill="#0D0815"/>
<path d="M475.14 209.928C474.886 210.875 474.263 211.371 473.294 211.452C473.444 210.367 474.009 209.801 475.14 209.928Z" fill="#0D0815"/>
<path d="M219.749 427.769C216.852 428.334 215.398 425.888 213.575 424.549C199.577 414.186 187.044 402.358 177.351 387.748C166.503 371.396 157.133 354.294 149.863 336.003C143.123 319.062 136.592 302.064 131.341 284.604C126.356 268.009 122.801 251.126 120.886 233.874C118.785 215.064 116.858 196.196 109.265 178.482C105.537 169.792 100.01 162.303 94.5052 154.767C94.1129 154.236 93.2705 154.04 92.6358 153.694C92.4396 153.371 92.2434 153.059 92.0357 152.736C92.1857 151.917 91.8972 151.294 91.2048 150.832C83.3345 135.288 76.5375 119.247 69.4058 103.368C65.1013 93.7783 60.2892 84.3733 58.1312 73.9642C57.8542 72.6486 57.5773 71.2985 57.5773 69.9598C57.5773 67.6403 56.6771 64.5822 59.5275 63.5897C62.0894 62.7012 64.0397 65.0322 65.5168 66.8325C71.3445 73.9642 75.7412 82.0306 80.2533 90.0163C84.3154 97.2057 88.4583 104.349 92.4973 111.55C93.2589 112.912 93.9398 114.4 95.74 114.146C97.8057 113.858 98.1057 112.081 98.2557 110.373C98.6365 106.034 101.291 102.86 104.003 99.8946C106.518 97.148 111.169 97.5865 114.689 100.437C119.847 104.626 121.74 111.215 126.079 116.016C126.436 116.408 126.148 117.447 126.056 118.162C125.329 123.852 127.117 127.36 132.322 130.36C135.841 132.391 136.338 138.704 133.36 143.747C131.479 146.932 128.537 147.393 124.475 144.404C115.473 137.792 110.35 128.964 110.119 117.585C110.084 115.912 111.007 113.569 108.203 113.35C105.272 113.119 104.96 115.566 104.718 117.643C103.426 128.733 114.031 146.101 124.567 150.267C131.583 153.036 136.903 150.151 138.299 142.823C138.519 141.646 138.842 140.481 139.096 139.361C139.488 139.281 139.834 139.084 140.007 139.188C145.235 142.212 145.166 142.177 142.212 147.439C139.869 151.64 137.469 155.806 135.968 160.433C135.264 162.591 135.161 164.507 137.665 165.13C139.95 165.696 140.492 163.941 141.104 161.991C143.839 153.313 148.385 145.501 153.475 138.046C154.848 136.038 155.967 134.041 156.902 131.814C157.548 130.279 158.887 128.848 157.652 127.267C156.302 125.536 154.398 126.402 152.632 126.783C148.051 127.764 143.481 128.444 138.773 127.233C130.279 125.052 128.225 119.501 134.249 113.258C141.208 106.045 150.359 102.583 160.133 102.318C169.746 102.053 178.805 112.381 179.878 123.125C180.871 132.98 177.524 141.75 173.312 150.37C169.619 157.929 164.645 164.749 161.518 172.666C156.313 185.844 158.518 198.827 162.026 211.648C170.346 242.148 180.605 271.967 194.395 300.494C195.376 302.525 196.657 304.406 197.604 306.46C198.538 308.48 200.223 310.142 200.546 312.427C199.727 313.454 198.561 313.05 197.58 313.257C191.718 314.527 189.352 318.97 191.96 324.486C195.515 331.964 202.15 336.637 208.359 341.611C212.94 345.281 217.995 348.304 223.072 351.259C224.007 351.801 225.623 352.182 225.299 353.682C225.034 354.94 223.545 354.536 222.599 354.848C219.322 355.955 215.952 356.821 212.744 358.09C195.088 365.037 189.283 379.532 196.969 396.842C201.735 407.585 208.163 417.071 217.037 424.849C218.052 425.726 219.333 426.361 219.749 427.769Z" fill="#AC72FB"/>
<path d="M332.229 218.837C333.06 219.518 333.89 220.199 334.721 220.88C335.298 221.595 335.875 221.584 336.464 220.891C340.491 218.549 341.403 213.933 344.034 210.574C345.592 215.894 344.08 221.341 344.692 226.696C341.553 229.235 338.033 231.404 336.591 235.524C335.864 237.601 333.648 237.463 332.056 238.097C320.954 242.575 314.803 250.768 313.395 262.562C313.165 264.443 312.795 266.532 314.711 267.963C315.069 268.401 315.427 268.828 315.784 269.267C313.292 271.413 310.534 273.317 308.341 275.729C297.62 287.512 296.616 300.875 302.64 315.069C304.037 318.358 304.244 320.043 300.321 321.601C294.17 324.059 292.947 329.171 296.443 334.814C298.301 337.814 301.002 339.972 303.736 342.107C304.048 342.338 304.348 342.569 304.66 342.8L304.706 342.857C305.052 343.111 305.387 343.354 305.733 343.607L305.698 343.596C306.298 346.7 308.941 348.108 311.087 349.851C319.292 356.486 327.994 362.256 338.414 364.876C341.634 365.683 338.76 366.214 338.345 366.86C314.549 371.742 292.831 366.133 271.805 354.801C252.187 344.219 232.731 333.429 213.909 321.508C213.286 321.116 212.755 320.585 212.201 320.135C212.836 318.312 214.29 319.004 215.306 318.981C224.561 318.727 233.585 317.1 242.459 314.561C253.468 311.422 260.981 304.533 265.378 293.882C271.425 279.237 271.967 264.512 266.197 249.845C258.8 231.058 241.444 222.184 221.191 226.234C220.325 226.407 219.483 226.627 217.579 227.065C223.568 219.368 230.723 215.329 239.009 213.379C253.145 210.055 266.589 215.917 275.671 228.981C278.787 233.458 281.21 238.293 282.976 243.44C283.553 245.125 284.257 246.81 286.334 246.233C288.654 245.598 287.95 243.613 287.43 242.09C282.284 226.984 273.294 215.317 257.923 209.443C256.965 209.074 255.638 209.132 255.442 207.874C255.28 206.755 256.423 206.558 257.253 206.235C269.417 201.423 280.83 202.289 291.216 210.759C293.824 212.882 296.028 215.329 297.113 218.595C297.528 219.841 298.267 220.695 299.709 220.683C301.152 220.672 301.613 219.645 302.259 218.537C307.245 209.87 313.522 202 318.288 191.926C319.165 196.092 318.265 198.965 318.023 201.85C317.861 203.8 317.55 205.739 317.423 207.701C317.296 209.663 317.054 211.971 319.65 212.444C321.82 212.836 322.766 211.082 323.424 209.27C323.943 207.851 324.543 206.478 325.109 205.081C326.99 204.631 326.343 206.155 326.632 206.997C328.028 211.163 328.386 215.825 332.229 218.837Z" fill="#AB72FA"/>
<path d="M200.766 318.185C220.776 331.756 241.432 344.254 262.92 355.332C274.818 361.471 286.519 368.061 299.802 370.992C313.292 373.958 326.748 373.461 340.272 371.35C355.921 368.915 371.534 366.007 387.494 367.53C395.63 368.303 403.639 369.734 410.701 374.304C417.833 378.92 421.606 385.475 421.572 393.956C421.479 415.04 410.851 430.1 393.887 441.34C382.428 448.933 369.561 452.476 356.048 453.814C312.807 458.061 272.533 447.975 234.255 428.403C219.01 420.614 207.124 409.547 200.685 393.31C195.249 379.589 199.415 369.445 213.044 363.295C216.587 363.468 215.364 364.841 213.794 366.272C208.013 371.534 206.016 378.389 206.27 385.844C206.662 397.73 212.271 407.193 220.822 415.167C228.104 421.964 236.955 425.703 246.037 429.384C259.331 434.773 272.775 439.678 286.692 442.932C299.236 445.863 312.046 447.375 325.074 447.086C334.71 446.867 344.3 446.44 353.774 444.79C356.567 444.305 359.752 443.925 361.898 441.478H361.921C363.618 441.467 365.487 441.951 366.422 439.851C379.047 434.912 390.714 428.542 399.53 417.879C404.562 411.786 406.962 405.116 405.473 396.991C403.2 384.563 394.014 381.482 383.559 379.728C377.927 377.108 371.788 377.189 365.891 377.316C352.666 377.593 339.603 380.062 326.321 380.293C320.574 380.397 314.769 380.512 309.311 379.462C293.189 376.358 277.899 370.519 263.22 363.168C243.683 353.382 225.576 341.369 208.613 327.659C204.805 324.578 200.038 322.697 197.165 318.462L197.223 318.427C198.388 318.335 199.577 318.266 200.766 318.185Z" fill="#32EAF1"/>
<path d="M244.433 369.884C255.869 366.607 264.316 374.408 273.802 378.043C285.758 382.613 297.528 387.563 310.396 389.133C321.705 390.506 332.899 390.102 344.046 387.736C355.852 385.232 367.761 383.686 379.878 384.378C384.736 384.655 389.444 385.763 393.841 387.759C399.577 390.367 402.796 400.534 400.142 407.274C397.246 414.601 390.979 419.067 385.44 424.11C383.894 425.518 382.232 425.103 380.651 423.591C368.719 412.143 354.282 407.112 337.93 405.82C330.937 405.266 324.151 405.739 317.273 406.108C314.942 406.235 312.888 405.727 310.846 404.469C303.656 400.015 295.544 398.157 287.327 397.13C272.256 395.249 257.715 397.995 243.591 403.188C240.082 404.481 236.724 406.212 233.355 407.874C231.439 408.82 229.708 408.947 227.792 407.885C217.602 402.242 213.171 390.033 217.856 379.554C221.018 372.48 227.469 370.496 234.485 369.919C237.774 369.653 241.121 369.884 244.433 369.884Z" fill="#0D0815"/>
<path d="M279.526 174.304C279.053 169.873 281.453 165.869 281.384 161.506C282.088 159.752 282.792 157.998 283.553 156.106C283.98 157.017 284.396 157.906 284.811 158.795C285.134 164.807 285.365 170.831 285.815 176.843C285.942 178.528 286 180.744 288.573 180.79C290.824 180.824 291.562 179.07 292.093 177.282C293.882 171.142 295.636 164.992 298.463 158.91C298.717 161.483 299.167 164.068 299.19 166.642C299.282 180.224 300.979 193.691 301.89 207.216C302.006 208.982 301.994 210.828 300.448 211.648C298.717 212.571 297.932 210.586 296.928 209.594C285.746 198.411 269.659 194.488 256.1 202.462C247.664 207.424 238.34 207.47 229.996 211.417C223.349 214.567 216.933 218.376 213.679 224.919C211.578 229.131 208.786 232.085 205.428 234.912C204.435 235.755 203.662 237.463 202.196 236.92C200.662 236.355 201.331 234.555 201.296 233.308C200.662 211.025 206.455 190.899 220.857 173.427C227.134 165.811 233.066 157.86 237.659 149.032C242.679 139.396 243.44 128.906 244.075 118.381C244.133 117.447 243.602 115.877 245.148 115.9C246.533 115.923 246.983 117.227 246.845 118.578C246.845 125.513 246.96 132.46 246.822 139.384C246.51 155.229 240.994 169.019 230.262 180.709C227.423 179.567 225.149 180.409 222.888 182.348C219.772 185.013 217.256 188.164 215.133 191.58C210.574 198.908 207.424 206.778 207.066 215.537C207.02 216.598 206.559 218.202 208.313 218.445C209.859 218.664 210.274 217.395 210.551 216.16C210.875 214.706 210.967 213.159 212.155 212.04C212.998 214.671 211.902 217.314 211.994 219.98C213.852 220.176 214.521 218.779 215.421 217.891C223.799 209.582 233.251 203.154 244.917 200.373C246.464 200.004 247.906 198.977 249.245 198.031C255.396 193.703 261.581 189.583 268.782 186.998C273.052 185.463 277.426 184.483 281.753 183.271C283.149 182.879 285.284 182.555 284.557 180.571C283.311 177.224 283.392 173.612 282.434 170.185C280.253 171.004 280.957 173.346 279.526 174.304Z" fill="#7A35D8"/>
<path d="M279.526 174.304C280.957 173.358 280.253 171.004 282.446 170.208C283.403 173.647 283.334 177.247 284.569 180.594C285.308 182.567 283.173 182.902 281.765 183.294C277.437 184.506 273.064 185.487 268.794 187.021C261.593 189.595 255.407 193.726 249.257 198.054C247.918 199 246.476 200.027 244.929 200.396C233.262 203.177 223.811 209.617 215.433 217.914C214.533 218.803 213.875 220.199 212.006 220.003C211.902 217.337 212.998 214.694 212.167 212.063C212.098 211.821 212.167 211.625 212.352 211.463C213.644 210.494 213.506 209.155 213.321 207.793L213.298 207.84C213.875 207.528 214.048 207.078 213.829 206.466C213.979 206.016 214.14 205.578 214.29 205.128C215.306 204.493 215.398 203.535 215.237 202.485L215.248 202.473C215.456 202.081 215.664 201.677 215.871 201.285C218.272 194.545 222.392 189.018 228.035 184.702C229.489 183.594 230.412 182.567 230.296 180.744C241.029 169.054 246.545 155.252 246.856 139.419C246.995 132.483 246.879 125.548 246.879 118.612C254.45 128.617 259.977 139.742 264.939 151.19C268.125 158.541 270.156 166.226 271.829 174.039C272.337 176.393 271.887 179.947 275.314 180.017C278.487 180.063 278.534 176.555 279.526 174.304ZM263.624 172.469C262.62 162.141 258.8 149.366 254.68 142.858C253.688 141.288 252.753 138.669 250.457 139.892C248.276 141.046 250.099 143.216 250.791 144.67C253.526 150.405 255.661 156.36 257.069 162.534C258.004 166.642 258.639 170.819 259.366 174.974C259.631 176.485 260.254 177.593 261.985 177.409C263.555 177.247 263.751 175.966 263.797 174.72C263.809 173.97 263.682 173.22 263.624 172.469Z" fill="#AB72FA"/>
<path d="M222.726 231.162C234.508 227.746 244.986 230.862 253.503 238.963C264.408 249.326 270.686 269.798 257.865 285.111C249.095 295.578 237.278 297.898 224.445 297.113C219.898 296.836 215.583 295.694 212.305 292.151C212.536 291.389 212.444 290.708 211.971 290.027C208.035 284.488 206.962 277.991 205.854 271.517C203.835 259.793 205.958 249.164 214.267 240.209C217.002 237.255 219.702 234.266 222.426 231.3L222.414 231.427L222.426 231.127L222.726 231.162ZM234.127 281.199C239.078 279.538 243.729 277.403 246.867 272.948C252.395 276.272 255.453 276.41 258.754 273.502C261.823 270.79 262.573 264.893 260.335 261.062C257.98 257.046 254.149 255.8 249.072 257.427C248.679 251.369 244.352 248.61 239.655 246.141C236.378 240.983 228.057 240.002 222.587 243.683C212.605 250.399 209.212 270.006 213.055 280.242C214.302 283.577 217.175 285.25 220.752 285.654C225.899 286.196 230.123 284.038 234.127 281.199Z" fill="#E6451E"/>
<path d="M299.386 417.798C299.479 417.625 299.617 417.556 299.813 417.579C301.602 417.59 303.702 418.225 305.133 417.521C312.103 414.082 318.427 417.383 324.936 418.918C332.587 420.729 339.269 424.734 345.431 429.234C348.443 431.438 353.901 431.981 353.717 437.589C340.596 438.962 327.452 438.305 314.388 437.197C297.713 435.777 281.303 432.615 265.505 426.892C255.904 423.407 246.602 419.206 237.74 414.117C238.34 411.763 240.313 412.317 241.825 412.397C251.357 412.974 260.866 411.705 270.49 413.863C277.83 415.513 285.146 417.002 292.208 419.598C293.639 420.799 295.036 419.898 296.432 419.518C297.886 419.76 299.156 419.668 299.386 417.798Z" fill="#F627BA"/>
<path d="M521.323 245.933C519.95 251.184 515.369 254.046 512.172 257.877C502.952 268.898 494.054 279.999 490.927 294.54C488.654 305.133 495.127 313.015 507.51 311.63C513.834 310.926 518.819 306.922 524.797 305.537C520.931 315.035 513.488 320.308 503.725 321.67C493.523 323.089 483.807 321.128 478.244 311.342C473.19 302.468 474.852 293.282 479.699 284.696C486.08 273.375 495.485 264.755 505.56 256.838C510.58 252.903 515.299 248.46 521.323 245.933Z" fill="#7E36E1"/>
<path d="M361.887 441.467C359.741 443.925 356.567 444.294 353.763 444.779C344.289 446.429 334.699 446.856 325.063 447.075C312.034 447.375 299.225 445.863 286.681 442.921C272.764 439.666 259.32 434.75 246.026 429.373C236.944 425.692 228.092 421.941 220.811 415.155C212.26 407.181 206.651 397.73 206.259 385.832C206.016 378.378 208.001 371.523 213.783 366.261C215.352 364.83 216.576 363.445 213.033 363.283C223.95 358.713 234.878 354.363 245.552 364.149C240.89 364.53 236.194 364.864 231.52 365.326C211.025 367.311 206.155 389.202 214.36 401.146C218.399 407.02 223.43 411.567 229.5 415.098C256.792 430.965 286.127 439.863 317.724 441.882C332.518 442.817 347.185 443.602 361.887 441.467Z" fill="#35A7AC"/>
<path d="M140.919 69.9712C141.577 60.6469 141.969 49.4992 145.466 38.8132C146.562 35.4666 147.382 30.7814 151.421 30.689C155.783 30.5967 156.902 35.4435 157.918 38.8824C161.633 51.4379 161.253 64.4666 161.703 77.3798C161.899 83.0921 162.199 88.8044 162.557 94.5167C162.672 96.3631 162.337 97.194 160.179 97.1479C157.364 97.1017 153.913 98.6711 151.917 97.5171C149.897 96.3516 149.378 92.6703 148.097 90.1315C147.289 88.5275 146.435 86.9234 145.397 85.4463C140.931 79.0878 140.908 79.1108 140.919 69.9712Z" fill="#AB72FA"/>
<path d="M197.153 318.439C200.027 322.674 204.793 324.555 208.601 327.636C225.576 341.357 243.671 353.37 263.208 363.145C277.899 370.496 293.177 376.335 309.299 379.439C314.757 380.489 320.573 380.374 326.309 380.27C339.591 380.039 352.666 377.57 365.879 377.293C371.788 377.166 377.916 377.085 383.547 379.705C367.253 377.904 351.454 381.216 335.61 384.217C318.381 387.483 301.994 383.801 286.103 377.558C261.777 367.991 238.859 355.586 216.621 341.934C209.536 337.584 203.131 332.275 197.973 325.686C196.368 323.62 193.991 321.231 197.153 318.439Z" fill="#35A7AC"/>
<path d="M315.796 269.29C315.438 268.851 315.081 268.424 314.723 267.986C317.458 267.836 317.389 265.828 317.677 263.832C318.981 254.888 322.974 247.641 331.387 243.533C336.314 241.121 341.53 240.209 347.104 240.971C368.153 243.833 386.548 252.672 403.212 265.516C405.139 267.005 407.124 268.298 409.674 268.321C407.043 270.363 404.423 270.432 401.434 268.84C392.249 263.947 382.913 259.296 373.034 255.961C357.79 250.826 343.123 251.38 329.54 261.027C327.994 262.124 326.632 263.174 326.505 265.216C322.928 266.567 319.362 267.928 315.796 269.29Z" fill="#7A35D8"/>
<path d="M353.717 437.589C353.901 431.981 348.455 431.438 345.431 429.234C339.269 424.722 332.576 420.718 324.936 418.918C318.427 417.383 312.104 414.082 305.133 417.521C303.702 418.225 301.602 417.602 299.813 417.579C303.737 413.932 308.815 412.64 313.754 411.82C331.341 408.935 348.605 409.789 364.83 418.214C368.996 420.383 372.654 423.268 376.047 426.499C377.616 427.988 377.951 429.223 375.793 430.331C368.834 433.931 361.76 437.232 353.717 437.589Z" fill="#B0408F"/>
<path d="M292.209 419.61C285.146 417.013 277.83 415.525 270.49 413.875C260.877 411.717 251.357 412.986 241.825 412.409C240.313 412.317 238.34 411.774 237.74 414.128C236.92 414.221 236.009 414.002 235.87 413.251C235.547 411.601 237.197 411.417 238.144 410.967C248.691 405.924 259.781 402.75 271.448 401.827C281.603 401.019 291.597 401.988 301.302 405.289C303.125 405.912 305.006 406.431 306.714 407.978C305.387 409.605 303.46 409.997 301.833 410.897C297.955 413.021 293.363 414.452 292.209 419.61Z" fill="#B0408F"/>
<path d="M413.655 256.619C408.439 255.926 404.631 252.28 400.154 250.064C392.618 246.325 384.852 243.336 376.635 241.559C375.158 241.236 373.646 241.017 372.481 242.367C367.161 241.467 362.314 238.986 356.948 238.039C352.944 237.336 348.985 236.632 344.912 236.528C344.035 236.505 342.892 236.678 342.592 235.628C342.338 234.739 343.008 233.977 343.735 233.354C348.628 229.234 354.328 227.896 360.548 228.646C375.458 230.446 388.937 235.801 400.627 245.287C405.104 248.91 410.343 251.657 413.655 256.619Z" fill="#7A35D8"/>
<path d="M338.357 366.872C338.772 366.226 341.646 365.695 338.426 364.887C328.005 362.268 319.304 356.498 311.099 349.862C308.941 348.12 306.31 346.712 305.71 343.608C306.853 343.435 307.66 344.081 308.584 344.623C320.008 351.386 331.768 357.04 345.212 358.898C357.456 360.595 369.169 358.967 380.743 355.286C386.963 353.313 391.695 348.766 397.061 345.316C396.934 349.92 393.068 351.824 390.171 354.144C386.825 356.833 382.901 358.794 378.481 361.541C383.674 361.887 388.29 361.61 392.56 363.33C384.309 363.433 376.116 362.233 367.795 363.064C359.256 363.918 350.785 364.934 342.384 366.607C341.069 366.872 339.695 366.792 338.357 366.872Z" fill="#7A35D8"/>
<path d="M260.104 294.032C253.93 307.926 241.132 310.718 228.092 312.957C223.661 313.719 219.137 313.95 214.659 314.515C211.913 314.861 211.151 313.557 211.555 311.111C211.601 310.811 211.636 310.511 211.682 310.222C213.148 300.298 213.113 300.621 222.83 301.729C235.201 303.148 246.764 300.586 256.896 292.935C257.75 292.624 258.615 292.301 259.469 291.989L259.596 292.116C259.769 292.739 259.942 293.385 260.104 294.032Z" fill="#AB72FA"/>
<path d="M120.043 96.5363C119.974 91.9549 125.548 84.1885 129.575 83.046C133.591 81.9036 138.345 84.3847 141.507 89.2892C141.669 89.5431 141.773 89.8316 141.923 90.0854C147.739 99.7329 147.727 99.7213 137.988 105.018C136.545 105.803 135.16 106.691 133.822 107.626C128.894 111.088 128.929 111.088 125.859 106.207C124.428 103.933 122.951 101.683 121.382 99.4905C120.701 98.5096 119.685 97.7365 120.043 96.5363Z" fill="#AB72FA"/>
<path d="M581.066 212.155C578.111 210.482 575.192 212.086 572.249 212.236C556.289 213.009 541.16 217.406 526.297 222.899C515.149 227.019 503.667 230.296 493.35 236.436C492.415 236.989 491.308 236.886 490.269 236.551C499.836 228.877 510.833 223.765 522.154 219.46C542.187 211.844 562.844 206.835 584.366 206.028C585.786 205.97 587.32 205.578 589.017 206.755C586.605 209.109 584.17 211.082 581.066 212.155Z" fill="#7A35D8"/>
<path d="M438.893 253.907C432.581 254.715 427.861 250.341 422.275 248.76C418.802 247.78 415.478 246.291 412.028 245.195C411.07 244.895 409.754 243.787 408.947 245.575C403.488 241.721 398.457 237.301 391.429 233.424C398.284 232.639 403.604 233.505 408.9 234.901C419.252 237.636 428.922 241.906 437.958 247.653C440.659 249.384 441.224 251.426 438.893 253.907Z" fill="#7A35D8"/>
<path d="M222.426 231.289C219.714 234.266 217.014 237.255 214.267 240.198C205.947 249.164 203.835 259.793 205.855 271.506C206.963 277.968 208.036 284.477 211.971 290.016C212.444 290.685 212.536 291.378 212.306 292.139C209.213 291.77 207.586 289.208 206.374 287.085C200.454 276.745 197.742 265.655 199.935 253.699C201.92 242.84 212.929 231.9 222.426 231.289Z" fill="#F0E5F1"/>
<path d="M274.794 450.26C273.79 450.595 272.036 450.525 274.148 452.118C278.464 455.372 283.184 457.946 287.892 460.542C289.312 461.327 291.031 461.615 292.116 462.989C276.225 458.8 261.604 451.841 247.952 442.794C246.787 442.02 245.067 441.767 244.121 439.182C254.773 443.024 264.778 446.636 274.794 450.26Z" fill="#7A35D8"/>
<path d="M344.703 226.708C344.092 221.353 345.604 215.906 344.046 210.586C346.296 205.647 348.535 200.708 350.785 195.769C352.147 204.92 351.708 213.806 350.081 222.622C349.527 225.623 346.873 225.854 344.703 226.708Z" fill="#7A35D8"/>
<path d="M469.37 231.335C467.616 229.004 466.681 231.07 465.643 232.085C460.046 237.509 455.141 243.625 449.164 248.668C448.252 249.43 447.514 250.445 446.163 250.468C446.371 247.226 448.725 245.044 450.491 242.794C456.665 234.901 463.092 227.204 470.617 220.522C470.974 221.168 471.332 221.814 471.69 222.472C470.247 225.242 469.439 228.185 469.37 231.335Z" fill="#7A35D8"/>
<path d="M332.229 218.837C328.398 215.825 328.04 211.163 326.632 207.009C326.344 206.166 327.001 204.643 325.109 205.093C327.175 198.873 329.252 192.653 331.698 185.302C334.064 197.211 331.964 208.047 332.229 218.837Z" fill="#7A35D8"/>
<path d="M489.565 228.508C487.754 227.296 486.507 228.877 485.111 229.489C481.984 230.862 478.926 232.431 475.394 232.466C482.411 226.534 489.9 221.261 497.701 216.425C498.151 216.541 498.382 216.402 498.336 215.906L498.567 215.675C498.901 215.502 499.247 215.317 499.582 215.133C499.859 215.214 500.136 215.19 500.401 215.052C500.378 215.629 500.355 216.206 500.332 216.783L500.309 216.829C499.859 217.36 499.421 217.902 498.97 218.433C495.532 221.503 493.327 225.738 489.565 228.508Z" fill="#7A35D8"/>
<path d="M140.111 132.956C143.573 132.956 146.885 132.956 150.243 132.956C148.409 137.999 143.366 137.988 140.111 132.956Z" fill="#7A35D8"/>
<path d="M284.811 158.783C284.396 157.894 283.98 157.006 283.553 156.094C282.791 157.987 282.088 159.741 281.384 161.495C281.003 157.398 283.103 153.774 283.484 148.593C285.215 152.678 284.973 155.736 284.811 158.783Z" fill="#7A35D8"/>
<path d="M259.481 291.966C258.615 292.278 257.761 292.601 256.907 292.912C258.385 290.581 260.45 288.873 263.151 286.588C262.481 289.82 261.823 292.128 260.104 294.02C259.942 293.374 259.769 292.728 259.596 292.081C259.723 291.908 259.862 291.747 259.989 291.574C259.827 291.712 259.654 291.839 259.481 291.966Z" fill="#AB72FA"/>
<path d="M426.107 458.546C427.746 460.173 429.869 459.192 431.739 459.573C428.38 460.773 424.965 461.569 420.914 461.154C422.472 459.388 424.48 459.319 426.107 458.546Z" fill="#7A35D8"/>
<path d="M226.072 432.338C223.084 432.004 220.568 431.011 219.749 427.711C222.31 428.623 224.065 430.654 226.072 432.338Z" fill="#AC72FB"/>
<path d="M471.69 222.461C471.332 221.814 470.974 221.168 470.616 220.51C471.251 219.656 471.828 217.764 472.982 218.895C473.905 219.807 473.421 221.711 471.69 222.461Z" fill="#7A35D8"/>
<path d="M242.24 444.94C241.929 445.552 241.629 446.163 241.317 446.763C239.967 446.152 238.236 445.125 239.252 443.728C240.256 442.344 241.502 443.786 242.24 444.94Z" fill="#7A35D8"/>
<path d="M500.343 216.783C500.366 216.206 500.389 215.629 500.412 215.052C500.736 214.429 501.451 213.517 501.855 214.198C502.663 215.548 502.04 216.621 500.343 216.783Z" fill="#0D0815"/>
<path d="M366.41 439.828C365.476 441.928 363.606 441.455 361.91 441.455C363.179 440.267 364.772 439.978 366.41 439.828Z" fill="#35A7AC"/>
<path d="M445.909 251.091C446.14 252.476 445.552 253.376 444.294 253.884C444.294 252.649 444.444 251.484 445.909 251.091Z" fill="#AB72FA"/>
<path d="M299.386 417.798C299.155 419.668 297.886 419.748 296.42 419.529C297.159 418.502 297.967 417.625 299.386 417.798Z" fill="#F627BA"/>
<path d="M200.765 318.185C199.577 318.254 198.388 318.323 197.199 318.392C198.319 317.008 199.519 317.158 200.765 318.185Z" fill="#35A7AC"/>
<path d="M374.038 243.083C374.996 242.933 375.804 243.083 376.196 244.11C375.389 243.948 374.442 244.075 374.038 243.083Z" fill="#AB72FA"/>
<path d="M241.444 446.96C242.275 447.271 242.852 447.825 243.002 448.737C241.986 448.575 241.49 447.975 241.444 446.96Z" fill="#7A35D8"/>
<path d="M336.464 220.903C335.876 221.595 335.299 221.607 334.722 220.891C335.299 220.891 335.876 220.891 336.464 220.903Z" fill="#7A35D8"/>
<path d="M498.97 218.433C499.42 217.903 499.859 217.36 500.309 216.829C500.297 217.729 499.974 218.364 498.97 218.433Z" fill="#0D0815"/>
<path d="M91.2162 150.82C91.9086 151.27 92.1971 151.894 92.047 152.724C91.1123 152.378 91.1815 151.593 91.2162 150.82Z" fill="#7E36E1"/>
<path d="M227.446 434.162C226.569 433.839 226.026 433.273 226.015 432.292C226.927 432.581 227.157 433.389 227.446 434.162Z" fill="#AC72FB"/>
<path d="M416.171 258.442C415.848 258.212 415.513 257.981 415.19 257.75C415.525 257.981 415.848 258.212 416.171 258.442Z" fill="#7A35D8"/>
<path d="M415.167 257.692C414.855 257.438 414.544 257.173 414.22 256.919C414.867 256.781 415.167 257.046 415.167 257.692Z" fill="#7A35D8"/>
<path d="M523.17 244.421C522.927 244.629 522.674 244.848 522.431 245.056C522.362 244.491 522.627 244.306 523.17 244.421Z" fill="#7E36E1"/>
<path d="M475.129 232.72C474.829 232.87 474.54 233.008 474.24 233.147C474.54 233.008 474.829 232.858 475.129 232.72Z" fill="#7A35D8"/>
<path d="M222.726 231.162L222.426 231.127L222.414 231.427C222.449 231.277 222.553 231.185 222.726 231.162Z" fill="#F0E5F1"/>
<path d="M524.808 305.537C525.051 305.237 525.281 304.948 525.524 304.648C525.616 305.214 525.489 305.595 524.808 305.537Z" fill="#7E36E1"/>
<path d="M498.347 215.906C498.393 216.402 498.162 216.541 497.712 216.425C497.862 216.183 498.07 216.01 498.347 215.906Z" fill="#0D0815"/>
<path d="M499.582 215.133C499.247 215.317 498.901 215.491 498.567 215.675C498.913 215.491 499.247 215.317 499.582 215.133Z" fill="#0D0815"/>
<path d="M243.336 445.575C243.048 445.39 242.771 445.206 242.494 445.032C242.771 445.206 243.059 445.39 243.336 445.575Z" fill="#77257A"/>
<path d="M244.352 446.417C243.821 446.556 243.521 446.371 243.51 445.794C243.798 446.002 244.075 446.21 244.352 446.417Z" fill="#7A35D8"/>
<path d="M246.637 447.687C246.314 447.652 246.118 447.479 246.037 447.167C246.245 447.34 246.441 447.513 246.637 447.687Z" fill="#7A35D8"/>
<path d="M243.533 449.637C243.844 449.695 244.029 449.879 244.087 450.191C243.902 450.006 243.717 449.822 243.533 449.637Z" fill="#7A35D8"/>
<path d="M244.444 450.422C244.629 450.652 244.802 450.895 244.986 451.126C244.802 450.883 244.629 450.652 244.444 450.422Z" fill="#77257A"/>
<path d="M245.183 451.53C245.39 451.726 245.598 451.922 245.794 452.118C245.587 451.922 245.379 451.726 245.183 451.53Z" fill="#77257A"/>
<path d="M246.152 452.291C246.372 452.522 246.591 452.741 246.81 452.972C246.591 452.753 246.372 452.522 246.152 452.291Z" fill="#77257A"/>
<path d="M251.588 457.727C251.83 457.946 252.061 458.154 252.303 458.373C252.061 458.154 251.818 457.934 251.588 457.727Z" fill="#77257A"/>
<path d="M252.465 458.649C252.672 458.857 252.892 459.065 253.099 459.273C252.88 459.065 252.672 458.857 252.465 458.649Z" fill="#77257A"/>
<path d="M397.049 345.316C391.683 348.766 386.952 353.313 380.732 355.286C369.157 358.967 357.444 360.583 345.2 358.898C331.756 357.04 319.997 351.386 308.572 344.623C307.649 344.081 306.841 343.423 305.699 343.608L305.733 343.619C305.387 343.365 305.052 343.123 304.706 342.869L304.66 342.811C304.66 342.177 304.302 342.015 303.737 342.119C301.002 339.996 298.302 337.838 296.444 334.826C292.947 329.183 294.17 324.07 300.321 321.612C304.245 320.043 304.037 318.37 302.641 315.081C296.617 300.887 297.621 287.523 308.341 275.741C310.534 273.329 313.292 271.425 315.785 269.279C319.35 267.917 322.916 266.567 326.482 265.205C354.421 257.969 386.236 274.183 395.941 300.864C402.531 318.958 396.449 335.991 378.181 345.662C377.108 345.523 376.254 345.8 375.839 346.897C375.631 346.85 375.481 346.92 375.377 347.104C374.489 347.197 373.577 347.208 372.711 347.404C347.347 353.128 326.171 346.273 309.449 326.263C307.395 323.817 305.549 323.205 303.091 325.398C298.613 327.821 298.048 330.302 301.879 333.926C307.21 338.957 313.765 342.257 320.274 345.535C336.684 355.39 354.178 357.306 372.573 352.747C381.159 351.039 388.221 346.666 394.164 340.353C395.411 339.038 396.772 337.515 398.746 338.749C400.454 339.811 399.553 341.346 398.884 342.696C397.788 343.238 396.934 343.954 397.015 345.327L397.049 345.316ZM318.289 327.417C318.497 329.679 319.951 331.26 321.612 332.414C335.83 342.234 350.993 347.681 368.719 343.769C384.171 340.365 394.972 326.84 393.749 311.111C393.033 301.856 388.729 294.147 382.647 287.535C370.888 274.772 356.278 268.102 338.749 268.286C319.501 268.067 301.129 281.696 303.968 303.287C305.122 312.127 309.299 319.501 315.127 326.078C316.027 327.105 317.031 327.475 318.289 327.417Z" fill="#0D0815"/>
<path d="M440.543 394.591C440.578 385.971 438.247 377.939 434.531 370.242C434.208 369.561 433.7 368.949 433.492 368.234C433.077 366.837 432.223 365.13 434.116 364.287C435.593 363.629 436.62 364.841 437.393 366.03C441.12 371.823 443.267 378.216 444.386 384.955C447.617 404.492 441.109 421.11 428.957 436.008C425.622 440.093 421.941 443.821 417.579 446.775C416.84 447.271 415.594 448.829 414.544 447.283C413.736 446.083 414.971 445.483 415.767 444.559C423.372 435.708 431.404 427.122 435.95 416.09C438.789 409.212 440.613 402.115 440.543 394.591Z" fill="#0D0815"/>
<path d="M303.102 325.42C305.56 323.228 307.418 323.828 309.46 326.286C326.182 346.296 347.358 353.151 372.723 347.427C373.588 347.231 374.5 347.231 375.388 347.127C373.553 350.485 369.595 349.805 366.629 351.732C368.499 353.578 370.772 352.089 372.596 352.77C354.201 357.329 336.695 355.413 320.296 345.558C322.939 345.408 322.143 344.554 320.666 343.642C315.496 340.446 311.076 336.476 307.487 331.514C306.021 329.483 305.502 326.759 303.102 325.42Z" fill="#7A35D8"/>
<path d="M397.026 345.338C396.957 343.965 397.811 343.25 398.895 342.707C399.011 344.104 398.918 345.361 397.026 345.338Z" fill="#7A35D8"/>
<path d="M375.85 346.908C376.266 345.812 377.119 345.535 378.193 345.673C377.696 346.619 377.004 347.208 375.85 346.908Z" fill="#7A35D8"/>
<path d="M303.737 342.119C304.302 342.003 304.648 342.177 304.66 342.811C304.36 342.58 304.048 342.35 303.737 342.119Z" fill="#7A35D8"/>
<path d="M212.351 211.452C212.167 211.613 212.098 211.809 212.167 212.052C210.978 213.171 210.886 214.706 210.563 216.16C210.297 217.395 209.87 218.664 208.324 218.445C206.581 218.203 207.043 216.598 207.078 215.537C207.424 206.778 210.586 198.908 215.144 191.58C217.268 188.164 219.783 185.014 222.899 182.348C225.161 180.409 227.434 179.567 230.273 180.709C230.389 182.532 229.465 183.548 228.011 184.667C222.368 188.983 218.26 194.511 215.848 201.25C215.64 201.643 215.433 202.047 215.225 202.439L215.213 202.45C214.059 203.027 214.175 204.066 214.267 205.093C214.117 205.543 213.956 205.982 213.806 206.432C213.632 206.893 213.448 207.355 213.275 207.805L213.298 207.759C212.075 208.763 212.282 210.125 212.351 211.452Z" fill="#0D0815"/>
<path d="M263.624 172.469C263.682 173.219 263.808 173.97 263.785 174.72C263.751 175.966 263.555 177.235 261.974 177.408C260.243 177.593 259.619 176.485 259.354 174.974C258.627 170.819 257.992 166.642 257.058 162.533C255.65 156.348 253.526 150.405 250.78 144.67C250.087 143.215 248.264 141.046 250.445 139.892C252.742 138.669 253.676 141.288 254.669 142.858C258.8 149.366 262.62 162.141 263.624 172.469Z" fill="#0D0815"/>
<path d="M212.352 211.451C212.283 210.124 212.075 208.763 213.321 207.782C213.506 209.143 213.644 210.482 212.352 211.451Z" fill="#7A35D8"/>
<path d="M214.279 205.104C214.187 204.077 214.071 203.05 215.225 202.462C215.387 203.512 215.294 204.47 214.279 205.104Z" fill="#7A35D8"/>
<path d="M213.298 207.828C213.471 207.366 213.656 206.905 213.829 206.455C214.048 207.055 213.875 207.517 213.298 207.828Z" fill="#7A35D8"/>
<path d="M215.237 202.45C215.445 202.058 215.652 201.654 215.86 201.262C215.652 201.654 215.445 202.046 215.237 202.45Z" fill="#7A35D8"/>
<path d="M246.868 272.948C243.717 277.403 239.078 279.537 234.128 281.199C224.261 280.588 219.264 276.618 218.41 268.528C217.268 257.75 225.877 243.833 239.655 246.129C244.352 248.599 248.68 251.357 249.072 257.415C243.994 262.308 243.625 264.847 246.868 272.948ZM239.113 263.012C238.986 260 237.867 257.635 234.555 257.346C231.312 257.069 226.673 263.001 226.754 267.132C226.811 270.502 228.496 272.567 231.97 272.59C235.628 272.602 239.159 267.732 239.113 263.012Z" fill="#0D0815"/>
<path d="M239.655 246.129C225.877 243.833 217.268 257.75 218.41 268.528C219.264 276.606 224.261 280.588 234.128 281.199C230.123 284.038 225.9 286.208 220.753 285.631C217.176 285.238 214.302 283.554 213.056 280.218C209.213 269.982 212.606 250.376 222.588 243.66C228.058 239.99 236.378 240.971 239.655 246.129Z" fill="#F3C14A"/>
<path d="M246.867 272.948C243.625 264.847 243.994 262.308 249.072 257.415C254.149 255.788 257.98 257.035 260.335 261.05C262.573 264.882 261.823 270.779 258.754 273.491C255.465 276.41 252.395 276.272 246.867 272.948Z" fill="#F3C14A"/>
<path d="M259.481 291.966C259.654 291.839 259.827 291.712 260 291.585C259.873 291.759 259.735 291.92 259.608 292.093L259.481 291.966Z" fill="#AB72FA"/>
<path d="M338.761 268.297C356.29 268.101 370.899 274.771 382.659 287.546C388.74 294.159 393.045 301.867 393.76 311.122C394.983 326.851 384.182 340.376 368.73 343.781C351.004 347.693 335.852 342.246 321.624 332.425C319.962 331.271 318.508 329.69 318.3 327.428C317.412 325.282 316.534 323.147 315.646 321.001C315.715 318.15 316.788 318.889 318.127 320.274C324.497 326.863 332.379 330.994 340.907 334.018C346.4 335.956 352.02 337.549 357.421 339.707C363.191 342.003 369.065 340.353 372.076 334.929C374.408 330.74 376.739 326.54 378.724 322.189C379.681 320.077 381.193 317.977 380.674 315.392C380.778 314.861 380.881 314.33 380.997 313.811C383.432 310.361 383.432 304.787 380.997 301.913C380.916 301.671 380.847 301.417 380.812 301.163C380.558 300.829 380.304 300.482 380.039 300.148L380.016 300.125C379.739 299.825 379.462 299.513 379.185 299.213L379.139 299.155C378.862 298.867 378.597 298.578 378.32 298.29L378.239 298.209C377.95 297.944 377.673 297.667 377.385 297.401L377.362 297.321C373.923 287.823 366.814 282.272 357.478 279.422C351.385 277.564 345.465 278.43 340.018 281.88C339.499 281.995 338.98 282.099 338.46 282.215C337.168 281.961 336.152 282.422 335.206 283.322C333.821 284.65 332.448 284.8 330.902 283.311C328.651 281.141 326.009 280.403 323.066 282.018C320.239 283.565 319.246 286.092 319.269 289.185C319.293 292.197 319.466 295.232 319.166 298.209C318.773 302.167 315.011 301.994 312.542 302.225C310.234 302.444 311.388 299.686 311.226 298.255C310.984 296.178 311.076 294.055 311.03 291.954H311.007C311.93 291.424 311.999 290.65 311.618 289.762C312.772 282.884 317.169 278.441 322.778 274.921C327.717 271.794 333.914 271.69 338.761 268.297Z" fill="#E6451E"/>
<path d="M338.76 268.298C333.925 271.69 327.717 271.794 322.766 274.91C317.158 278.43 312.761 282.873 311.607 289.75C311.007 290.374 310.753 291.089 310.995 291.943H311.018C308.93 299.606 310.522 307.014 312.945 314.227C313.707 316.477 312.865 319.524 315.646 321.001C316.534 323.147 317.411 325.282 318.3 327.428C317.031 327.486 316.027 327.117 315.127 326.101C309.299 319.524 305.133 312.138 303.967 303.31C301.14 281.707 319.512 268.078 338.76 268.298Z" fill="#F0E5F1"/>
<path d="M303.102 325.42C305.503 326.759 306.022 329.482 307.487 331.514C311.065 336.476 315.485 340.445 320.666 343.642C322.143 344.554 322.939 345.408 320.297 345.558C313.788 342.292 307.233 338.991 301.902 333.948C298.059 330.313 298.625 327.844 303.102 325.42Z" fill="#AB72FA"/>
<path d="M239.113 263.012C239.171 267.732 235.628 272.613 231.958 272.59C228.496 272.567 226.811 270.513 226.742 267.132C226.673 263.001 231.3 257.069 234.543 257.346C237.867 257.635 238.974 260 239.113 263.012Z" fill="#F0E5F1"/>
<path d="M315.634 320.989C312.853 319.512 313.696 316.465 312.934 314.215C310.51 307.002 308.918 299.594 311.007 291.931C311.053 294.032 310.961 296.155 311.203 298.232C311.376 299.663 310.21 302.421 312.518 302.202C314.988 301.971 318.75 302.144 319.142 298.186C319.442 295.209 319.269 292.174 319.246 289.162C319.223 286.069 320.204 283.553 323.043 281.995C325.986 280.391 328.628 281.118 330.879 283.288C332.425 284.776 333.798 284.626 335.183 283.299C336.129 282.399 337.145 281.938 338.437 282.192C332.621 286.9 331.029 293.12 331.906 300.252C332.136 302.144 331.398 303.621 330.255 305.179C326.089 310.845 327.717 316.154 333.948 318.935C338.045 320.758 342.234 319.835 346.388 320.1C355.274 324.324 362.648 322.42 367.38 314.654C371.545 319.696 376.058 318.358 380.651 315.369C381.181 317.965 379.658 320.066 378.7 322.166C376.715 326.517 374.384 330.717 372.053 334.906C369.041 340.318 363.167 341.98 357.397 339.684C351.997 337.526 346.377 335.945 340.884 333.995C332.356 330.971 324.485 326.84 318.104 320.25C316.777 318.877 315.703 318.15 315.634 320.989Z" fill="#F4792E"/>
<path d="M346.388 320.124C342.234 319.858 338.033 320.781 333.948 318.958C327.717 316.177 326.089 310.869 330.255 305.203C331.398 303.645 332.136 302.167 331.906 300.275C331.04 293.143 332.621 286.923 338.437 282.215C338.957 282.099 339.476 281.996 339.995 281.88C345.027 280.68 349.781 281.245 354.189 284.061C349.712 285.4 345.373 286.865 342.303 290.824C335.448 299.663 336.995 311.18 346.388 320.124Z" fill="#F3C14A"/>
<path d="M380.651 315.381C376.058 318.381 371.546 319.708 367.38 314.665C362.66 306.599 363.56 302.006 370.911 296.605C373.046 296.836 375.192 297.078 377.327 297.309L377.35 297.39C377.639 297.655 377.916 297.932 378.204 298.198L378.285 298.278C378.562 298.567 378.827 298.855 379.104 299.144L379.15 299.201C379.427 299.502 379.704 299.813 379.981 300.113L380.004 300.136C380.258 300.471 380.512 300.817 380.778 301.152C380.824 301.406 380.881 301.648 380.962 301.902C381.839 305.872 381.147 309.83 380.962 313.8C380.87 314.33 380.766 314.85 380.651 315.381Z" fill="#F3C14A"/>
<path d="M377.339 297.309C375.204 297.078 373.057 296.836 370.922 296.605C368.291 288.504 362.314 284.869 354.201 284.061C349.793 281.245 345.038 280.68 340.007 281.88C345.454 278.418 351.374 277.553 357.467 279.411C366.791 282.272 373.9 287.812 377.339 297.309Z" fill="#F4792E"/>
<path d="M380.974 313.8C381.17 309.83 381.851 305.872 380.974 301.902C383.409 304.776 383.409 310.349 380.974 313.8Z" fill="#F4792E"/>
<path d="M310.995 291.931C310.741 291.077 311.007 290.362 311.607 289.739C311.976 290.639 311.907 291.401 310.995 291.931Z" fill="#F4792E"/>
<path d="M379.993 300.113C379.716 299.813 379.439 299.502 379.162 299.202C379.439 299.502 379.716 299.802 379.993 300.113Z" fill="#F4792E"/>
<path d="M379.116 299.144C378.839 298.855 378.562 298.567 378.297 298.278C378.574 298.567 378.851 298.855 379.116 299.144Z" fill="#F4792E"/>
<path d="M380.79 301.152C380.536 300.817 380.282 300.471 380.016 300.136C380.27 300.471 380.536 300.817 380.79 301.152Z" fill="#F4792E"/>
<path d="M378.216 298.209C377.927 297.944 377.65 297.667 377.362 297.401C377.65 297.667 377.927 297.932 378.216 298.209Z" fill="#F4792E"/>
<path d="M354.201 284.061C362.314 284.869 368.292 288.504 370.923 296.605C363.56 302.017 362.66 306.61 367.391 314.665C362.66 322.432 355.286 324.336 346.4 320.112C337.007 311.169 335.46 299.652 342.327 290.812C345.385 286.877 349.724 285.4 354.201 284.061ZM347.889 301.498C348.12 303.091 348.224 304.591 348.581 306.033C349.204 308.538 350.589 310.511 353.428 310.522C356.29 310.534 357.548 308.48 358.263 306.022C359.129 303.068 359.071 300.113 358.194 297.182C357.49 294.817 356.013 293.166 353.44 293.155C350.855 293.143 349.366 294.851 348.685 297.194C348.258 298.602 348.131 300.113 347.889 301.498Z" fill="#0D0815"/>
<path d="M347.889 301.498C348.131 300.113 348.258 298.601 348.673 297.182C349.354 294.839 350.843 293.143 353.428 293.143C356.001 293.155 357.478 294.805 358.182 297.171C359.059 300.102 359.117 303.056 358.252 306.01C357.536 308.48 356.29 310.534 353.416 310.511C350.589 310.499 349.193 308.526 348.57 306.022C348.223 304.591 348.119 303.091 347.889 301.498Z" fill="#F0E5F1"/>
</svg>
