<svg width="36" height="36" viewBox="0 0 36 36" fill="none" xmlns="http://www.w3.org/2000/svg">
<path d="M34.8308 27.08C34.9108 27.2667 34.9508 27.6267 34.9508 28.16C34.9508 28.5067 34.7908 29.0533 34.4708 29.8C34.3375 30.12 34.1242 30.32 33.8308 30.4C33.6442 30.4267 33.4842 30.5333 33.3508 30.72C33.0575 31.04 32.6842 31.3067 32.2308 31.52C32.0708 31.68 31.8575 31.8 31.5908 31.88C31.3242 31.9333 31.1375 31.9733 31.0308 32C30.9508 32.0267 30.8308 32.04 30.6708 32.04C30.4575 32.04 30.2975 32.0133 30.1908 31.96C30.1375 31.9333 30.0175 31.88 29.8308 31.8C29.6442 31.72 29.4708 31.6667 29.3108 31.64C29.2308 31.64 29.1508 31.6 29.0708 31.52C28.9375 31.4133 28.7108 31.3333 28.3908 31.28C28.3642 31.28 28.2708 31.24 28.1108 31.16C28.0575 31.1067 28.0308 31.0533 28.0308 31C28.0308 30.92 28.0442 30.8667 28.0708 30.84C28.0975 30.8133 28.1242 30.7733 28.1508 30.72C28.2042 30.64 28.2042 30.5467 28.1508 30.44C27.9375 30.0667 27.8042 29.6533 27.7508 29.2C27.7508 29.04 27.7242 28.8533 27.6708 28.64C27.6175 28.4267 27.5908 28.2667 27.5908 28.16C27.5908 28.08 27.6175 27.96 27.6708 27.8C27.7242 27.64 27.7508 27.5067 27.7508 27.4C27.7775 27.2667 27.7908 27.16 27.7908 27.08C27.7908 26.84 27.8442 26.6267 27.9508 26.44C27.9775 26.3867 28.0575 26.24 28.1908 26C28.3508 25.7333 28.5642 25.5333 28.8308 25.4C28.9108 25.3467 28.9642 25.2933 28.9908 25.24C29.0175 25.1867 29.0442 25.1467 29.0708 25.12C29.1775 25.0133 29.2575 24.9467 29.3108 24.92C29.4975 24.8933 29.7242 24.7467 29.9908 24.48L30.4708 24C30.6042 23.8667 30.8175 23.7467 31.1108 23.64C31.1908 23.6133 31.2975 23.6 31.4308 23.6C31.6175 23.6 31.7508 23.6267 31.8308 23.68C32.3375 23.8667 32.7375 24.1067 33.0308 24.4L34.0708 25.48C34.2308 25.64 34.3508 25.8133 34.4308 26C34.5375 26.24 34.6708 26.6 34.8308 27.08Z" fill="white"/>
<path d="M10 32.72C10.08 32.48 10.12 32.1333 10.12 31.68V31.36C10.12 30.96 10.1333 30.64 10.16 30.4C10.2133 30.16 10.3067 29.92 10.44 29.68L10.8 28.64C11.0667 28 11.24 27.4 11.32 26.84C11.3467 26.7333 11.3867 26.6267 11.44 26.52C11.52 26.3867 11.5733 26.2933 11.6 26.24C11.6 26.2133 11.5867 26.1867 11.56 26.16C11.5333 26.1067 11.5067 26.0667 11.48 26.04H11.4C11.08 26.1467 10.7067 26.2 10.28 26.2C9.74667 26.2533 9.36 26.32 9.12 26.4C9.06667 26.4267 8.96 26.44 8.8 26.44H8.44H5.68C5.2 26.44 4.82667 26.36 4.56 26.2C4.45333 26.1467 4.28 26.08 4.04 26C3.8 25.8933 3.62667 25.8 3.52 25.72C3.38667 25.64 3.21333 25.5467 3 25.44C2.78667 25.3067 2.61333 25.1733 2.48 25.04C2.29333 24.8533 2.09333 24.52 1.88 24.04C1.66667 23.7733 1.48 23.3067 1.32 22.64C1.29333 22.56 1.28 22.4133 1.28 22.2C1.30667 22.04 1.28 21.8 1.2 21.48C1.14667 21.16 1.12 20.92 1.12 20.76C1.14667 20.6533 1.14667 20.52 1.12 20.36C1.12 20.2 1.12 20.0933 1.12 20.04C1.12 19.9867 1.12 19.92 1.12 19.84C1.14667 19.76 1.14667 19.68 1.12 19.6C1.09333 19.4933 1.06667 19.3733 1.04 19.24C1.01333 19.08 1 18.8933 1 18.68C1 18.5467 1.01333 18.4133 1.04 18.28C1.09333 18.1467 1.12 18.0133 1.12 17.88C1.12 17.4 1.25333 16.8933 1.52 16.36C1.57333 16.2533 1.65333 16.12 1.76 15.96C1.89333 15.8 1.96 15.6267 1.96 15.44C1.93333 15.3867 1.98667 15.2933 2.12 15.16C2.33333 14.9467 2.48 14.8267 2.56 14.8C2.74667 14.6933 2.93333 14.5467 3.12 14.36C3.33333 14.1733 3.48 14.04 3.56 13.96C3.72 13.8267 3.90667 13.64 4.12 13.4C4.36 13.16 4.56 12.9733 4.72 12.84C4.82667 12.68 4.97333 12.52 5.16 12.36C5.37333 12.2 5.53333 12.08 5.64 12C5.8 11.92 5.94667 11.8 6.08 11.64C6.24 11.48 6.34667 11.3733 6.4 11.32C7.68 10.12 8.50667 9.36 8.88 9.04C8.90667 9.01333 8.94667 8.98667 9 8.96C9.05333 8.93333 9.09333 8.89333 9.12 8.84C9.25333 8.65333 9.56 8.34667 10.04 7.92L10.68 7.32C10.7867 7.18667 11 7.01333 11.32 6.8C11.8 6.42667 12.1067 6.10667 12.24 5.84C12.3733 5.57333 12.5333 5.38667 12.72 5.28C12.9333 5.22667 13.1333 5.10667 13.32 4.92C13.5067 4.70667 13.6267 4.57333 13.68 4.52C13.7067 4.46667 13.7467 4.41333 13.8 4.36C13.8533 4.30667 13.88 4.25333 13.88 4.2C13.88 4.14667 13.8533 4.09333 13.8 4.04C13.7733 3.98667 13.7467 3.92 13.72 3.84C13.6133 3.62667 13.64 3.45333 13.8 3.32C14.2533 3.02667 14.5333 2.72 14.64 2.4C14.6667 2.34667 14.7067 2.30667 14.76 2.28C14.8133 2.25333 14.8533 2.22667 14.88 2.2C15.0667 2.06667 15.2267 2 15.36 2C15.44 2 15.5067 2.01333 15.56 2.04L16.04 2.28C16.4133 2.6 16.7467 2.85333 17.04 3.04C17.3067 3.25333 17.4667 3.41333 17.52 3.52C17.6533 3.73333 17.9733 4.12 18.48 4.68C18.5867 4.86667 18.7067 5.04 18.84 5.2C18.9733 5.33333 19.12 5.44 19.28 5.52C19.3867 5.62667 19.44 5.68 19.44 5.68C19.52 5.81333 19.68 6.02667 19.92 6.32C20.16 6.61333 20.3067 6.88 20.36 7.12C20.4133 7.28 20.4933 7.41333 20.6 7.52C20.7867 7.76 20.9067 8.04 20.96 8.36C21.04 8.68 21.0933 8.89333 21.12 9L21.08 9.36C21.0267 9.65333 20.92 9.93333 20.76 10.2C20.6533 10.36 20.5333 10.5467 20.4 10.76C20.2933 10.9467 20.16 11.1467 20 11.36C19.8667 11.5467 19.6667 11.6933 19.4 11.8C19.16 11.9067 18.9733 12 18.84 12.08C18.0133 12.6133 17.4533 12.9467 17.16 13.08C16.84 13.2667 16.48 13.56 16.08 13.96C15.5467 14.44 15.12 14.7467 14.8 14.88C14.6133 14.9867 14.4533 15.0933 14.32 15.2C14.1867 15.28 14.0533 15.36 13.92 15.44L13.4 15.92C13.24 16.08 13.16 16.2533 13.16 16.44C13.16 16.52 13.1733 16.5867 13.2 16.64C13.3067 16.9333 13.36 17.28 13.36 17.68C13.36 18.08 13.36 18.3867 13.36 18.6V19.28C13.3867 19.3867 13.44 19.4933 13.52 19.6C13.6267 19.68 13.7467 19.72 13.88 19.72C14.0133 19.72 14.1067 19.6933 14.16 19.64C14.32 19.5333 14.5467 19.3733 14.84 19.16C15.16 18.9467 15.4267 18.7333 15.64 18.52L16.48 17.64C16.7733 17.32 17.24 16.9733 17.88 16.6C17.88 16.6 18.4 16.28 19.44 15.64L20.12 15.2C20.2 15.12 20.32 15.0267 20.48 14.92C20.5867 14.8667 20.7067 14.8667 20.84 14.92C21 14.9467 21.0933 15 21.12 15.08C21.6533 15.72 22.1467 16.2133 22.6 16.56C22.68 16.6133 22.7733 16.72 22.88 16.88C23.12 17.1467 23.32 17.4 23.48 17.64C23.6667 17.88 23.8267 18.08 23.96 18.24C24.0667 18.4 24.1333 18.5333 24.16 18.64C24.2133 18.7467 24.2533 18.8533 24.28 18.96C24.3333 19.0667 24.3867 19.1733 24.44 19.28C24.5467 19.4667 24.6133 19.7467 24.64 20.12C24.6933 20.4667 24.7467 20.7067 24.8 20.84C24.8267 20.8667 24.8267 20.9067 24.8 20.96C24.8 20.9867 24.8 21.0133 24.8 21.04C24.72 21.2267 24.64 21.44 24.56 21.68C24.5067 21.8933 24.44 22.12 24.36 22.36C24.3333 22.44 24.2667 22.5333 24.16 22.64C24.0533 22.7733 23.8133 23.08 23.44 23.56C23.0933 24.0133 22.7333 24.4133 22.36 24.76C22.2533 24.8667 22 25.1867 21.6 25.72C21.3333 26.1467 21.1067 26.4667 20.92 26.68L20.88 26.76C20.8533 26.9733 20.7467 27.1867 20.56 27.4C20.3733 27.6133 20.24 27.7867 20.16 27.92C20 28.1067 19.8267 28.2533 19.64 28.36C19.5867 28.36 19.52 28.4 19.44 28.48C19.36 28.8 19.1867 29.0933 18.92 29.36C18.6533 29.6 18.48 29.76 18.4 29.84C17.84 30.32 17.4933 30.6667 17.36 30.88L16.08 32.2C15.5733 32.7067 15.1067 33.2133 14.68 33.72C14.5467 33.8533 14.3867 33.96 14.2 34.04C13.9867 34.1467 13.7333 34.2 13.44 34.2L12.56 34.16C12.48 34.16 12.3733 34.16 12.24 34.16C12.1067 34.16 11.9867 34.1733 11.88 34.2L11.52 34.28C11.0933 34.3067 10.76 34.16 10.52 33.84L10.08 33.16L10 32.84V32.72Z" fill="white"/>
</svg>
